<svg width="42" height="38" viewBox="0 0 42 38" fill="none" xmlns="http://www.w3.org/2000/svg">
<rect width="42" height="38" fill="#E5E5E5"/>
<g clip-path="url(#clip0_0_1)">
<rect width="1440" height="7214" transform="translate(-843 -5325)" fill="white"/>
<rect x="-843" y="-2087" width="1440" height="2209" fill="#FAFAFA"/>
</g>
<g clip-path="url(#clip1_0_1)">
<rect width="1440" height="7214" transform="translate(-902 -5722)" fill="white"/>
<rect x="-902" y="-275" width="1440" height="1128" fill="black"/>
<g clip-path="url(#clip2_0_1)">
<path d="M40.9306 10.4223C41.3807 12.0724 40.6584 13.3429 39.841 14.427C38.684 15.9198 37.3546 17.3049 35.9301 18.5036C29.2232 23.8537 21.4754 25.8579 13.0023 24.9816C10.8488 24.7511 8.69282 24.2085 6.30359 23.7461C6.77407 25.9735 8.56519 27.6429 9.17637 29.9158C8.16239 29.8468 7.70476 29.1798 7.31051 28.6372C5.70184 26.4044 4.10838 24.1246 2.57702 21.8131C1.85063 20.6959 1.95449 20.0552 3.07234 19.4834C5.38533 18.2612 7.84544 17.8647 10.3906 18.3258C10.4844 18.3561 10.5794 18.5425 10.7531 18.8063C9.58346 20.6582 7.15611 19.3534 5.65559 20.7868C8.64828 22.586 11.926 23.0249 15.2012 23.1517C18.6322 23.2772 22.0138 23.0753 25.2952 22.0629C28.5144 21.0823 31.3698 19.465 34.1606 17.5675C36.983 15.7321 39.1615 13.325 40.9306 10.4223Z" fill="white"/>
</g>
<path d="M29.6171 -26.3328C29.1371 -26.1861 28.781 -26.0124 28.4176 -25.7691C27.5662 -25.1688 26.9435 -24.0658 27.2595 -22.653C27.4678 -21.688 28.1553 -20.9963 29.0728 -20.6184C29.4341 -20.4396 30.2431 -20.1012 30.3971 -19.6909C30.5826 -19.1787 30.2082 -18.6972 29.9107 -18.5454C29.3267 -18.2126 28.6371 -18.4822 27.9637 -18.37C27.5482 -18.301 27.2786 -18.1464 27.2061 -17.8584C27.1636 -17.7221 27.1204 -17.4451 27.3124 -17.1293C27.7221 -16.6076 28.6425 -16.7924 29.2163 -16.7602C30.2532 -16.8483 31.0386 -17.357 31.4423 -17.8495C31.7002 -18.1603 31.9779 -18.7927 32.0606 -19.1782C32.2532 -20.0729 31.7855 -20.9808 31.2403 -21.4182C30.4465 -22.0365 28.9201 -22.1125 28.7938 -23.5898C28.7491 -24.1013 29.3733 -24.6832 30.0812 -24.7214C30.548 -24.7428 30.7921 -24.2526 30.9467 -23.9829C31.1234 -23.6547 31.3015 -23.0728 31.6482 -23.0223C32.1897 -22.9513 32.6183 -23.6805 32.5633 -24.0946C32.5625 -24.2213 32.369 -24.7907 32.2378 -25.0156C31.9452 -26.1162 30.3652 -26.6201 29.6171 -26.3328ZM34.2259 -21.3859C34.7367 -21.29 35.3873 -21.8551 36.4492 -21.9124C36.765 -21.837 37.1623 -21.0632 36.7645 -20.6264C36.5124 -20.3714 35.3238 -20.5808 34.6196 -20.4436C34.2166 -20.3593 33.6985 -20.1181 33.4831 -19.9437C33.1446 -19.6695 32.7314 -19.2203 32.807 -18.4662C32.8151 -18.1416 33.0628 -17.82 33.29 -17.5708C33.8339 -16.8521 34.4341 -16.5356 35.2219 -16.129C35.4484 -16.0067 36.009 -15.8492 36.25 -15.8661C36.5886 -15.8728 37.0033 -16.3359 37.13 -16.6042C37.4318 -17.3326 37.6515 -18.0838 37.8896 -18.8752C38.0756 -19.5736 38.3898 -20.5541 38.3303 -21.4613C38.295 -22.197 37.8919 -22.9151 37.4097 -23.1488C36.553 -23.4359 35.84 -23.2152 34.916 -22.8619C34.45 -22.7138 33.8931 -22.5048 33.9042 -21.9406C33.9196 -21.6856 33.9716 -21.5112 34.2259 -21.3859ZM35.5372 -19.2632C35.8032 -19.2493 36.3396 -19.2633 36.5046 -19.0912C36.4533 -18.6039 36.3091 -17.6336 35.8658 -17.5676C35.2077 -17.7353 34.2081 -18.136 34.2791 -18.945C34.5172 -19.2015 35.0052 -19.291 35.5372 -19.2632ZM41.0901 -17.7787C41.0658 -18.4851 40.9448 -19.6099 40.8494 -20.3097C40.8024 -20.6665 40.7422 -21.433 40.5832 -21.6609C40.301 -22.0566 39.5829 -21.9209 39.3279 -21.638C39.2634 -21.5603 39.092 -21.2686 39.1888 -20.8502C39.1962 -20.1174 39.752 -18.1727 39.9405 -16.8859C40.0154 -16.2587 40.0448 -15.7347 40.4661 -15.5919C41.1543 -15.3084 41.7719 -16.2289 42.117 -16.6994C43.2547 -18.2832 43.7126 -19.0233 44.2892 -19.8215C44.6035 -20.267 45.0439 -20.5727 44.9009 -21.2212C44.8033 -21.7664 44.2456 -21.9517 43.8111 -21.7017C43.3026 -21.4173 43.0777 -20.7512 42.6931 -20.1722C42.159 -19.5104 41.6455 -18.5086 41.0901 -17.7787ZM46.6287 -17.0417C46.9745 -17.1179 47.563 -17.225 48.0078 -17.305C48.6672 -17.4187 49.008 -17.5799 49.6579 -17.7368C50.047 -17.8226 50.3613 -18.2682 50.373 -18.6471C50.3993 -18.8977 50.263 -19.4751 50.183 -19.6524C49.7321 -21.1216 48.6329 -21.6454 47.2186 -21.3154C46.6441 -21.2069 45.9605 -20.7297 45.5605 -20.1383C45.0506 -19.5725 44.8052 -18.7114 44.9439 -17.4862C45.1998 -16.305 45.5194 -15.8632 46.5989 -15.2852C47.2695 -14.8346 48.653 -14.8722 49.4172 -15.3127C49.6744 -15.4828 49.7894 -15.9071 49.5167 -16.2595C49.0213 -16.6354 48.5524 -15.9245 47.6401 -16.2174C47.0406 -16.4071 46.6918 -16.5705 46.6287 -17.0417ZM46.9053 -19.6732C47.8571 -20.2911 48.6866 -20.1476 48.9374 -19.0514C48.8429 -18.822 48.4142 -18.6277 48.0867 -18.5918C47.5891 -18.5455 46.7105 -18.3563 46.4643 -18.4244C46.3793 -18.6868 46.5125 -19.4188 46.9053 -19.6732ZM56.9126 -22.5207C56.3169 -22.344 56.3016 -21.2617 56.142 -20.5465C55.803 -19.0618 55.6207 -17.4621 55.1601 -15.8916C54.9828 -15.2768 54.6217 -14.1182 55.334 -13.9307C55.7041 -13.8355 56.2727 -14.1558 56.4581 -14.446C56.7291 -14.8821 56.7004 -15.8142 56.8454 -16.3902C57.1046 -17.5172 57.3609 -19.1514 57.6413 -20.3466C57.7695 -20.8963 58.1746 -21.6702 58.0456 -22.0497C57.9019 -22.5575 57.2614 -22.6248 56.9126 -22.5207ZM62.8213 -21.8012C60.288 -21.6733 59.3922 -19.4447 59.0275 -17.5826C58.7617 -16.7941 58.5047 -15.0192 59.3805 -14.3782C59.969 -13.9503 60.8243 -13.3818 62.0062 -13.5109C65.1953 -13.8515 66.0227 -18.241 65.4076 -19.7556C65.0858 -20.5778 64.237 -21.8776 62.8213 -21.8012ZM61.1304 -19.1072C61.4264 -19.5124 62.0953 -20.1178 62.6413 -20.0886C63.3543 -20.0418 64.0022 -18.9742 64.0177 -18.4518C64.0604 -17.2507 63.3089 -15.19 61.9987 -15.0461C61.4857 -14.9874 60.6686 -15.383 60.4927 -15.852C60.2522 -16.5107 60.5216 -18.2702 61.1304 -19.1072ZM74.3883 -20.9233C73.665 -20.8726 73.4863 -20.5113 73.0738 -19.9353C72.4269 -19.0038 71.9382 -18.2387 71.3382 -17.2178C70.9924 -16.6066 70.6862 -16.1038 70.3141 -15.5095C70.0891 -15.1108 69.5389 -14.5633 69.5126 -14.0452C69.4929 -13.4561 70.0404 -13.1733 70.6529 -13.3764C71.3227 -13.5875 71.8003 -14.6494 72.1417 -15.2189C72.7219 -16.1855 73.3461 -17.3024 74.0662 -18.3951C74.3835 -18.8685 75.289 -19.984 75.1651 -20.546C75.1013 -20.8765 74.8287 -20.9615 74.3883 -20.9233ZM69.2652 -21.335C68.5728 -21.3093 67.7726 -20.9288 67.4905 -20.5221C67.0429 -19.8794 66.9845 -18.52 67.5811 -18.035C69.3525 -16.5396 71.5946 -18.0496 71.3408 -19.6529C71.2249 -20.4252 70.1988 -21.3777 69.2652 -21.335ZM69.8364 -19.1353C69.6365 -18.1709 68.0748 -19.2501 69.0669 -19.8496C69.5395 -19.9266 69.939 -19.575 69.8364 -19.1353ZM75.2295 -16.471C74.4256 -16.4569 73.4159 -15.9577 73.0591 -15.3758C72.5309 -14.5022 72.6637 -13.2213 73.3182 -12.8851C73.9323 -12.5672 75.0432 -12.6897 75.6184 -12.939C76.0903 -13.1427 76.6948 -13.6704 76.8222 -14.0794C77.2353 -15.331 75.9637 -16.4923 75.2295 -16.471ZM75.3785 -14.5408C75.3259 -14.0396 74.8554 -13.8497 74.4275 -14.0636C73.4938 -14.5559 75.5051 -15.6114 75.3785 -14.5408ZM23.6007 -3.48449C24.4815 -3.56084 25.1923 -3.35944 25.9536 -3.77212C26.7296 -4.05657 27.6008 -4.71109 27.9979 -5.27467C28.6558 -6.17684 28.597 -7.4922 28.0868 -8.26375C27.2718 -9.34889 26.2825 -9.57956 24.8975 -9.79552C24.3237 -9.82767 23.4626 -9.80555 23.1535 -9.27496C22.7785 -8.11782 22.435 -6.59136 22.2242 -5.38881C22.08 -4.41857 21.9519 -3.60148 21.8143 -2.56016C21.7374 -1.96292 21.4803 -1.25793 21.9669 -1.06602C22.7247 -0.775219 23.1584 -1.41941 23.3026 -2.12218C23.4095 -2.60365 23.4498 -3.12027 23.6007 -3.48449ZM26.6655 -5.99186C26.1483 -5.08898 24.8536 -4.69014 23.6884 -4.85483C23.7103 -5.59862 23.9988 -6.73669 24.2485 -7.63954C24.4272 -8.2683 24.3847 -8.39946 25.0296 -8.37392C26.3501 -8.34775 27.4077 -7.29342 26.6655 -5.99186ZM30.9428 -4.61321C31.2887 -4.68948 31.8771 -4.79656 32.3219 -4.8765C32.9814 -4.99019 33.3221 -5.15146 33.9721 -5.30838C34.3612 -5.39417 34.6755 -5.83976 34.6872 -6.21862C34.7135 -6.46924 34.5771 -7.04666 34.4972 -7.22398C34.0463 -8.69316 32.947 -9.21694 31.5328 -8.88696C30.9583 -8.77841 30.2747 -8.30126 29.8747 -7.70983C29.3647 -7.14403 29.1194 -6.28296 29.2581 -5.05775C29.514 -3.87653 29.8336 -3.43471 30.9131 -2.8567C31.5836 -2.40614 32.9672 -2.44373 33.7314 -2.88426C33.9886 -3.05431 34.1036 -3.47861 33.8309 -3.83104C33.3355 -4.20689 32.8666 -3.496 31.9542 -3.78898C31.3548 -3.97868 31.0059 -4.14204 30.9428 -4.61321ZM31.2194 -7.24472C32.1712 -7.86261 33.0008 -7.71911 33.2516 -6.62289C33.1571 -6.39352 32.7284 -6.19926 32.4009 -6.1633C31.9033 -6.11706 31.0247 -5.92786 30.7785 -5.99597C30.6934 -6.25829 30.8267 -6.99038 31.2194 -7.24472ZM37.5569 -8.57758C37.4462 -8.72998 37.2322 -8.83693 37.0219 -8.84496C36.2671 -8.89614 36.2422 -8.39197 36.0086 -7.37482C35.7648 -6.2602 35.5255 -4.38495 35.308 -3.25348C35.2355 -2.96548 35.1462 -2.6511 35.1843 -2.47816C35.2363 -2.30377 35.5112 -2.10596 35.7186 -2.07008C36.2447 -1.98663 36.5122 -1.98667 36.7012 -2.44543C36.9297 -3.01264 37.0812 -4.58744 37.1917 -5.23745C37.2166 -5.47414 38.2307 -6.0151 38.8191 -6.12218C39.0646 -6.18085 39.6794 -6.27108 39.9791 -6.30996C40.2649 -6.35031 40.8137 -6.6164 40.7887 -7.18211C40.7608 -7.45251 40.4457 -7.66863 40.1562 -7.72721C39.6623 -7.84951 39.068 -7.68674 38.6774 -7.58702C38.3147 -7.48437 37.7945 -7.08858 37.4581 -7.23655C37.5343 -7.69309 37.6603 -8.08809 37.5569 -8.57758ZM46.7693 -4.94873C46.7143 -5.36275 47.4358 -7.27179 46.9103 -7.76341C46.7703 -7.90482 46.4516 -7.9524 46.2896 -7.88496C45.6448 -7.64304 45.598 -6.93002 45.4736 -6.01401C45.4033 -5.61316 45.3015 -5.0467 45.1829 -4.45385C45.0489 -3.84854 44.9677 -3.20953 44.8761 -2.74053C44.7604 -2.17553 44.6367 -1.66768 44.9115 -1.46987C45.0544 -1.35631 45.5293 -1.32048 45.7652 -1.42237C46.0305 -1.53526 46.2693 -1.93247 46.4971 -2.359C46.8883 -3.13435 47.3199 -3.62393 47.777 -4.22342C48.0225 -4.54956 48.2393 -5.00539 48.6504 -5.03257C48.8366 -4.3936 48.4704 -3.58747 48.2909 -2.81801C48.2184 -2.53001 48.1137 -2.20317 48.1225 -2.01924C48.1688 -1.25421 49.0496 -1.33056 49.5098 -1.69043C50.1069 -2.14852 50.6505 -3.03455 51.0937 -3.63551C51.2454 -3.87296 51.4388 -4.10602 51.718 -4.21745C51.7569 -3.65027 51.5789 -3.1622 51.4581 -2.68221C51.3541 -2.22859 51.1586 -1.57344 51.2033 -1.06196C51.2812 -0.195076 52.3056 -0.298561 52.6037 -0.858462C52.7612 -1.1516 52.8652 -1.87269 52.9523 -2.29992C53.0453 -2.78285 53.1258 -3.28116 53.2298 -3.73478C53.3895 -4.45001 53.8999 -6.22638 53.3137 -6.54139C52.6065 -6.91134 52.0116 -6.07293 51.6767 -5.69988C51.4694 -5.46829 51.1712 -5.17586 50.9624 -4.93034C50.7536 -4.68482 50.5088 -4.49938 50.0963 -4.19081C50.2229 -5.52891 50.2373 -7.27297 48.8546 -6.84113C48.316 -6.67251 47.7958 -6.00925 47.4441 -5.60982C47.2536 -5.40461 46.9327 -5.0301 46.7693 -4.94873ZM57.0015 -6.54794C56.5486 -6.52516 56.3097 -6.39541 55.9492 -6.17992C55.3762 -5.81783 55.2905 -5.67199 54.9176 -5.20441C54.2099 -4.36378 53.8884 -2.7787 54.5195 -1.68474C54.8794 -1.2246 55.6401 -0.694176 56.3429 -0.549926C57.182 -0.363195 57.8473 -0.532575 58.413 -0.825049C59.4022 -1.39678 60.1553 -2.40156 60.1178 -3.5176C60.2494 -5.30564 59.0584 -6.69776 57.0015 -6.54794ZM55.6896 -3.03986C55.6425 -3.93166 56.4469 -5.15628 57.2134 -5.21649C58.2071 -5.29506 58.9327 -4.163 58.5592 -3.01979C58.368 -2.40641 57.7137 -1.94025 57.2689 -1.86031C56.3251 -1.72019 55.7292 -2.34591 55.6896 -3.03986ZM62.7113 -3.17463C62.6254 -4.09866 63.2956 -5.78786 62.1598 -5.69608C61.5062 -5.63809 61.444 -4.64514 61.3328 -3.85444C61.1871 -2.87028 60.9586 -2.03559 60.7587 -1.0712C60.5691 -0.204276 60.3069 0.683178 61.3313 0.579693C61.7145 0.549588 62.3013 -0.613447 62.5819 -1.00627C63.0728 -1.65853 62.9739 -1.65485 63.7666 -2.50062C64.086 -2.86121 64.4201 -3.36102 64.8576 -3.37135C64.8753 -2.73602 64.7647 -2.35349 64.6109 -1.69395C64.4417 -1.02195 64.2946 -0.291332 64.2646 0.395301C64.5322 0.930198 65.5024 0.806936 65.7331 0.352568C65.8049 0.205265 65.7844 -0.134748 65.8107 -0.385368C65.9315 -1.40031 66.4464 -2.95098 66.4638 -3.92047C66.4689 -4.3704 66.3002 -4.90898 66.1434 -5.024C65.6384 -5.44308 65.0559 -5.12422 64.6661 -4.89773C64.1547 -4.58548 63.718 -4.18091 63.3634 -3.75363C63.1853 -3.53304 62.9868 -3.38498 62.7113 -3.17463ZM71.086 -4.91275C71.0323 -5.87564 71.3225 -6.22522 71.4975 -6.95292C71.674 -7.42706 71.7956 -7.78029 71.095 -7.81169C69.9892 -7.8716 70.004 -6.94096 69.7939 -6.14658C69.7045 -5.83219 69.5471 -5.00411 69.2928 -4.86191C69.054 -4.73217 68.0947 -4.84707 67.795 -4.80818C67.5048 -4.72606 67.2389 -4.47247 67.1693 -4.21232C67.0748 -3.98294 67.1269 -3.54108 67.4032 -3.35719C67.7865 -3.11982 68.8065 -3.44901 69.0747 -3.05481C68.9342 -2.25311 68.8529 -1.6141 68.7138 -1.09379C68.6735 -0.844638 68.3952 0.195973 68.3271 0.442202C68.2758 0.662048 67.8437 1.82726 67.9038 2.05881C67.9808 2.26398 68.4132 2.43612 68.7239 2.42654C69.4303 2.40225 69.6762 0.865545 69.8235 0.402396C69.8945 0.12832 70.1464 -0.929141 70.2035 -1.20468C70.2804 -1.53445 70.5432 -3.09754 70.8312 -3.29251C71.1052 -3.48894 72.2367 -3.27148 72.6917 -3.44889C73.0002 -3.57131 73.2098 -3.95753 73.1657 -4.34223C73.0953 -5.01126 71.3865 -4.5574 71.086 -4.91275ZM75.9754 -3.99061C75.8347 -3.99133 76.1365 -4.98724 76.2676 -5.5647C76.3518 -5.96409 76.6822 -6.56283 76.4644 -7.03618C76.3486 -7.27359 75.9859 -7.43841 75.6583 -7.40245C75.0171 -7.32907 74.8979 -6.06059 74.7192 -5.16435C74.545 -4.30989 74.3692 -3.70897 74.1649 -2.70281C73.8442 -1.25843 73.6251 -0.647974 73.319 0.657179C73.1382 1.44056 73.0716 2.20781 73.6754 2.35574C74.5453 2.51755 74.617 1.83531 74.7613 1.13254C75.03 0.0486917 75.071 -0.608631 75.3976 -1.57377C75.5595 -1.90868 75.7896 -2.22235 76.0636 -2.41879C76.3098 -2.61815 76.6395 -2.80872 77.099 -2.76043C77.3137 -2.5267 77.0912 -0.9453 77.07 -0.609678C76.8995 0.878653 76.63 2.10319 76.7568 2.36991C76.8837 2.63663 77.4831 2.82633 77.8231 2.53829C78.2078 2.22679 78.264 1.28954 78.3423 0.410904C78.4301 -0.424494 78.5985 -1.49074 78.6284 -2.17737C78.6737 -3.14393 78.4991 -4.16175 77.8997 -4.35145C77.0958 -4.60487 76.7024 -3.94236 75.9754 -3.99061Z" fill="white"/>
</g>
<defs>
<clipPath id="clip0_0_1">
<rect width="1440" height="7214" fill="white" transform="translate(-843 -5325)"/>
</clipPath>
<clipPath id="clip1_0_1">
<rect width="1440" height="7214" fill="white" transform="translate(-902 -5722)"/>
</clipPath>
<clipPath id="clip2_0_1">
<rect width="28.3944" height="34.4457" fill="white" transform="translate(41.5175 10.6123) rotate(107.943)"/>
</clipPath>
</defs>
</svg>
