<svg width="17" height="16" viewBox="0 0 17 16" fill="none" xmlns="http://www.w3.org/2000/svg">
<rect width="17" height="16" fill="#E5E5E5"/>
<g clip-path="url(#clip0_0_1)">
<rect width="1440" height="7214" transform="translate(-830 -1340)" fill="white"/>
<rect x="-816" y="-382" width="1440" height="742" fill="#A8FF35"/>
<rect x="-347" y="-96" width="502" height="202" rx="16" fill="#F5F5F5"/>
<rect x="-267" y="-36" width="341.226" height="82" fill="#030303"/>
<path d="M-175.012 -3.92514V12.9998H-177.256V-3.92514H-175.012ZM-167.921 3.68874V5.52537H-175.501V3.68874H-167.921ZM-166.771 -3.92514V-2.08851H-175.501V-3.92514H-166.771ZM-162.086 0.422325V12.9998H-164.248V0.422325H-162.086ZM-164.411 -2.91383C-164.411 -3.26256 -164.306 -3.55704 -164.097 -3.79728C-163.88 -4.03751 -163.562 -4.15763 -163.144 -4.15763C-162.733 -4.15763 -162.419 -4.03751 -162.202 -3.79728C-161.978 -3.55704 -161.865 -3.26256 -161.865 -2.91383C-161.865 -2.5806 -161.978 -2.29387 -162.202 -2.05364C-162.419 -1.82115 -162.733 -1.70491 -163.144 -1.70491C-163.562 -1.70491 -163.88 -1.82115 -164.097 -2.05364C-164.306 -2.29387 -164.411 -2.5806 -164.411 -2.91383ZM-156.483 3.10752V12.9998H-158.634V0.422325H-156.599L-156.483 3.10752ZM-156.995 6.23445L-157.89 6.19957C-157.882 5.33938 -157.754 4.54506 -157.506 3.8166C-157.258 3.0804 -156.909 2.44107 -156.46 1.8986C-156.011 1.35614 -155.476 0.937666 -154.856 0.643185C-154.228 0.340955 -153.535 0.18984 -152.775 0.18984C-152.155 0.18984 -151.597 0.275084 -151.101 0.445573C-150.605 0.608313 -150.183 0.871796 -149.834 1.23602C-149.478 1.60025 -149.206 2.07297 -149.02 2.65418C-148.834 3.22764 -148.741 3.92897 -148.741 4.75817V12.9998H-150.904V4.73492C-150.904 4.07621 -151 3.54925 -151.194 3.15402C-151.388 2.75105 -151.671 2.46044 -152.043 2.2822C-152.415 2.09622 -152.872 2.00322 -153.414 2.00322C-153.949 2.00322 -154.437 2.11559 -154.879 2.34032C-155.313 2.56506 -155.689 2.87504 -156.007 3.27026C-156.317 3.66549 -156.561 4.11883 -156.739 4.6303C-156.909 5.13402 -156.995 5.66873 -156.995 6.23445ZM-137.547 10.5587V-4.85508H-135.385V12.9998H-137.361L-137.547 10.5587ZM-146.01 6.85053V6.60642C-146.01 5.64548 -145.894 4.77367 -145.661 3.99097C-145.421 3.20052 -145.084 2.52244 -144.65 1.95672C-144.208 1.39101 -143.685 0.95704 -143.08 0.65481C-142.468 0.34483 -141.786 0.18984 -141.035 0.18984C-140.244 0.18984 -139.554 0.329331 -138.966 0.608313C-138.369 0.879545 -137.865 1.27864 -137.454 1.80561C-137.036 2.32483 -136.707 2.95254 -136.466 3.68874C-136.226 4.42494 -136.059 5.25801 -135.966 6.18795V7.25738C-136.052 8.17957 -136.218 9.00877 -136.466 9.74497C-136.707 10.4812 -137.036 11.1089 -137.454 11.6281C-137.865 12.1473 -138.369 12.5464 -138.966 12.8254C-139.562 13.0966 -140.26 13.2322 -141.058 13.2322C-141.794 13.2322 -142.468 13.0734 -143.08 12.7556C-143.685 12.4379 -144.208 11.9923 -144.65 11.4189C-145.084 10.8454 -145.421 10.1712 -145.661 9.39624C-145.894 8.61354 -146.01 7.76497 -146.01 6.85053ZM-143.848 6.60642V6.85053C-143.848 7.47824 -143.786 8.0672 -143.662 8.61742C-143.53 9.16763 -143.328 9.65197 -143.057 10.0704C-142.786 10.4889 -142.441 10.8183 -142.023 11.0585C-141.604 11.291 -141.104 11.4072 -140.523 11.4072C-139.81 11.4072 -139.225 11.2561 -138.768 10.9539C-138.303 10.6517 -137.931 10.2526 -137.652 9.75659C-137.373 9.26062 -137.156 8.72203 -137.001 8.14082V5.33938C-137.094 4.91316 -137.23 4.50243 -137.408 4.10721C-137.578 3.70424 -137.803 3.34776 -138.082 3.03778C-138.353 2.72005 -138.69 2.46819 -139.093 2.2822C-139.489 2.09622 -139.957 2.00322 -140.5 2.00322C-141.089 2.00322 -141.596 2.12721 -142.023 2.3752C-142.441 2.61543 -142.786 2.94866 -143.057 3.37488C-143.328 3.79336 -143.53 4.28157 -143.662 4.83954C-143.786 5.38975 -143.848 5.97871 -143.848 6.60642ZM-126.772 0.422325V2.07297H-133.572V0.422325H-126.772ZM-131.27 -2.63485H-129.12V9.88446C-129.12 10.3107 -129.054 10.6323 -128.922 10.8493C-128.79 11.0663 -128.62 11.2096 -128.411 11.2794C-128.201 11.3491 -127.977 11.384 -127.736 11.384C-127.558 11.384 -127.372 11.3685 -127.179 11.3375C-126.977 11.2987 -126.826 11.2677 -126.725 11.2445L-126.714 12.9998C-126.884 13.054 -127.109 13.1044 -127.388 13.1509C-127.659 13.2051 -127.988 13.2322 -128.376 13.2322C-128.903 13.2322 -129.387 13.1276 -129.829 12.9184C-130.271 12.7091 -130.623 12.3604 -130.887 11.8722C-131.142 11.3762 -131.27 10.7098 -131.27 9.87283V-2.63485ZM-122.099 2.39845V12.9998H-124.249V0.422325H-122.157L-122.099 2.39845ZM-118.17 0.352579L-118.181 2.35195C-118.36 2.3132 -118.53 2.28995 -118.693 2.2822C-118.848 2.2667 -119.026 2.25896 -119.228 2.25896C-119.724 2.25896 -120.161 2.33645 -120.541 2.49144C-120.921 2.64643 -121.242 2.86342 -121.506 3.1424C-121.769 3.42138 -121.979 3.75461 -122.134 4.14208C-122.281 4.52181 -122.378 4.94028 -122.424 5.3975L-123.029 5.74623C-123.029 4.98678 -122.955 4.27382 -122.808 3.60737C-122.653 2.94091 -122.416 2.35195 -122.099 1.84048C-121.781 1.32127 -121.378 0.918293 -120.89 0.631561C-120.394 0.33708 -119.805 0.18984 -119.123 0.18984C-118.968 0.18984 -118.79 0.209214 -118.588 0.247961C-118.387 0.278959 -118.247 0.313832 -118.17 0.352579ZM-111.195 13.2322C-112.071 13.2322 -112.865 13.085 -113.578 12.7905C-114.283 12.4883 -114.892 12.0659 -115.403 11.5235C-115.907 10.981 -116.294 10.3378 -116.566 9.59385C-116.837 8.8499 -116.972 8.0362 -116.972 7.15276V6.66454C-116.972 5.64161 -116.821 4.73104 -116.519 3.93285C-116.217 3.1269 -115.806 2.44494 -115.287 1.88698C-114.768 1.32902 -114.179 0.906668 -113.52 0.619937C-112.861 0.333206 -112.179 0.18984 -111.474 0.18984C-110.575 0.18984 -109.8 0.34483 -109.149 0.65481C-108.491 0.964789 -107.952 1.39876 -107.534 1.95672C-107.115 2.50694 -106.805 3.1579 -106.604 3.9096C-106.402 4.65355 -106.301 5.46725 -106.301 6.35069V7.3155H-115.694V5.56024H-108.452V5.3975C-108.483 4.83954 -108.599 4.29707 -108.801 3.77011C-108.994 3.24314 -109.304 2.80917 -109.731 2.46819C-110.157 2.12721 -110.738 1.95672 -111.474 1.95672C-111.962 1.95672 -112.412 2.06134 -112.823 2.27058C-113.233 2.47207 -113.586 2.7743 -113.88 3.17727C-114.175 3.58024 -114.403 4.07234 -114.566 4.65355C-114.729 5.23476 -114.81 5.90509 -114.81 6.66454V7.15276C-114.81 7.74947 -114.729 8.31131 -114.566 8.83828C-114.396 9.35749 -114.152 9.81471 -113.834 10.2099C-113.508 10.6052 -113.117 10.9151 -112.66 11.1399C-112.195 11.3646 -111.668 11.477 -111.079 11.477C-110.319 11.477 -109.676 11.322 -109.149 11.012C-108.622 10.702 -108.161 10.2874 -107.766 9.76822L-106.464 10.8028C-106.735 11.2135 -107.08 11.6048 -107.499 11.9768C-107.917 12.3488 -108.432 12.651 -109.045 12.8835C-109.649 13.116 -110.366 13.2322 -111.195 13.2322ZM-101.64 3.10752V12.9998H-103.791V0.422325H-101.756L-101.64 3.10752ZM-102.152 6.23445L-103.047 6.19957C-103.039 5.33938 -102.911 4.54506 -102.663 3.8166C-102.415 3.0804 -102.066 2.44107 -101.617 1.8986C-101.167 1.35614 -100.633 0.937666 -100.013 0.643185C-99.385 0.340955 -98.6914 0.18984 -97.9319 0.18984C-97.312 0.18984 -96.754 0.275084 -96.258 0.445573C-95.7621 0.608313 -95.3397 0.871796 -94.991 1.23602C-94.6345 1.60025 -94.3633 2.07297 -94.1773 2.65418C-93.9913 3.22764 -93.8983 3.92897 -93.8983 4.75817V12.9998H-96.0604V4.73492C-96.0604 4.07621 -96.1573 3.54925 -96.351 3.15402C-96.5448 2.75105 -96.8276 2.46044 -97.1996 2.2822C-97.5716 2.09622 -98.0288 2.00322 -98.5713 2.00322C-99.106 2.00322 -99.5942 2.11559 -100.036 2.34032C-100.47 2.56506 -100.846 2.87504 -101.163 3.27026C-101.473 3.66549 -101.718 4.11883 -101.896 4.6303C-102.066 5.13402 -102.152 5.66873 -102.152 6.23445ZM-82.7042 10.5587V-4.85508H-80.5421V12.9998H-82.5182L-82.7042 10.5587ZM-91.1666 6.85053V6.60642C-91.1666 5.64548 -91.0504 4.77367 -90.8179 3.99097C-90.5777 3.20052 -90.2406 2.52244 -89.8066 1.95672C-89.3649 1.39101 -88.8418 0.95704 -88.2373 0.65481C-87.6251 0.34483 -86.9431 0.18984 -86.1914 0.18984C-85.401 0.18984 -84.7113 0.329331 -84.1223 0.608313C-83.5256 0.879545 -83.0219 1.27864 -82.6112 1.80561C-82.1927 2.32483 -81.8633 2.95254 -81.6231 3.68874C-81.3829 4.42494 -81.2163 5.25801 -81.1233 6.18795V7.25738C-81.2085 8.17957 -81.3751 9.00877 -81.6231 9.74497C-81.8633 10.4812 -82.1927 11.1089 -82.6112 11.6281C-83.0219 12.1473 -83.5256 12.5464 -84.1223 12.8254C-84.719 13.0966 -85.4165 13.2322 -86.2147 13.2322C-86.9509 13.2322 -87.6251 13.0734 -88.2373 12.7556C-88.8418 12.4379 -89.3649 11.9923 -89.8066 11.4189C-90.2406 10.8454 -90.5777 10.1712 -90.8179 9.39624C-91.0504 8.61354 -91.1666 7.76497 -91.1666 6.85053ZM-89.0045 6.60642V6.85053C-89.0045 7.47824 -88.9425 8.0672 -88.8185 8.61742C-88.6868 9.16763 -88.4853 9.65197 -88.2141 10.0704C-87.9428 10.4889 -87.598 10.8183 -87.1795 11.0585C-86.761 11.291 -86.2612 11.4072 -85.68 11.4072C-84.967 11.4072 -84.3819 11.2561 -83.9247 10.9539C-83.4597 10.6517 -83.0878 10.2526 -82.8088 9.75659C-82.5298 9.26062 -82.3128 8.72203 -82.1578 8.14082V5.33938C-82.2508 4.91316 -82.3864 4.50243 -82.5647 4.10721C-82.7352 3.70424 -82.9599 3.34776 -83.2389 3.03778C-83.5101 2.72005 -83.8472 2.46819 -84.2502 2.2822C-84.6454 2.09622 -85.1143 2.00322 -85.6567 2.00322C-86.2457 2.00322 -86.7533 2.12721 -87.1795 2.3752C-87.598 2.61543 -87.9428 2.94866 -88.2141 3.37488C-88.4853 3.79336 -88.6868 4.28157 -88.8185 4.83954C-88.9425 5.38975 -89.0045 5.97871 -89.0045 6.60642ZM-66.8138 4.92091V6.68779H-72.4865V4.92091H-66.8138ZM-47.7268 11.1747V12.9998H-56.6891V11.1747H-47.7268ZM-56.2358 -3.92514V12.9998H-58.4793V-3.92514H-56.2358ZM-48.9125 3.35163V5.17664H-56.6891V3.35163H-48.9125ZM-47.8431 -3.92514V-2.08851H-56.6891V-3.92514H-47.8431ZM-42.9376 -4.85508V12.9998H-45.0997V-4.85508H-42.9376ZM-40.0548 6.85053V6.58317C-40.0548 5.67648 -39.9231 4.83566 -39.6596 4.06071C-39.3961 3.27801 -39.0164 2.59993 -38.5204 2.02647C-38.0245 1.44526 -37.4239 0.995787 -36.7187 0.678058C-36.0135 0.352579 -35.223 0.18984 -34.3473 0.18984C-33.4639 0.18984 -32.6696 0.352579 -31.9643 0.678058C-31.2514 0.995787 -30.6469 1.44526 -30.151 2.02647C-29.6472 2.59993 -29.2636 3.27801 -29.0002 4.06071C-28.7367 4.83566 -28.6049 5.67648 -28.6049 6.58317V6.85053C-28.6049 7.75722 -28.7367 8.59804 -29.0002 9.37299C-29.2636 10.1479 -29.6472 10.826 -30.151 11.4072C-30.6469 11.9807 -31.2475 12.4302 -31.9527 12.7556C-32.6502 13.0734 -33.4406 13.2322 -34.3241 13.2322C-35.2075 13.2322 -36.0018 13.0734 -36.707 12.7556C-37.4122 12.4302 -38.0167 11.9807 -38.5204 11.4072C-39.0164 10.826 -39.3961 10.1479 -39.6596 9.37299C-39.9231 8.59804 -40.0548 7.75722 -40.0548 6.85053ZM-37.9043 6.58317V6.85053C-37.9043 7.47824 -37.8307 8.07108 -37.6835 8.62904C-37.5362 9.17925 -37.3154 9.66747 -37.0209 10.0937C-36.7187 10.5199 -36.3428 10.857 -35.8933 11.105C-35.4439 11.3452 -34.9208 11.4654 -34.3241 11.4654C-33.7351 11.4654 -33.2198 11.3452 -32.778 11.105C-32.3286 10.857 -31.9566 10.5199 -31.6621 10.0937C-31.3676 9.66747 -31.1468 9.17925 -30.9995 8.62904C-30.8445 8.07108 -30.7671 7.47824 -30.7671 6.85053V6.58317C-30.7671 5.96321 -30.8445 5.37813 -30.9995 4.82791C-31.1468 4.26995 -31.3715 3.77786 -31.6737 3.35163C-31.9682 2.91766 -32.3402 2.57668 -32.7897 2.3287C-33.2314 2.08072 -33.7506 1.95672 -34.3473 1.95672C-34.9363 1.95672 -35.4555 2.08072 -35.905 2.3287C-36.3467 2.57668 -36.7187 2.91766 -37.0209 3.35163C-37.3154 3.77786 -37.5362 4.26995 -37.6835 4.82791C-37.8307 5.37813 -37.9043 5.96321 -37.9043 6.58317ZM-23.7576 3.10752V12.9998H-25.9081V0.422325H-23.8739L-23.7576 3.10752ZM-24.2691 6.23445L-25.1642 6.19957C-25.1564 5.33938 -25.0285 4.54506 -24.7806 3.8166C-24.5326 3.0804 -24.1839 2.44107 -23.7344 1.8986C-23.2849 1.35614 -22.7502 0.937666 -22.1302 0.643185C-21.5025 0.340955 -20.8089 0.18984 -20.0495 0.18984C-19.4295 0.18984 -18.8716 0.275084 -18.3756 0.445573C-17.8796 0.608313 -17.4573 0.871796 -17.1086 1.23602C-16.7521 1.60025 -16.4809 2.07297 -16.2949 2.65418C-16.1089 3.22764 -16.0159 3.92897 -16.0159 4.75817V12.9998H-18.178V4.73492C-18.178 4.07621 -18.2749 3.54925 -18.4686 3.15402C-18.6623 2.75105 -18.9452 2.46044 -19.3172 2.2822C-19.6891 2.09622 -20.1464 2.00322 -20.6888 2.00322C-21.2235 2.00322 -21.7118 2.11559 -22.1535 2.34032C-22.5875 2.56506 -22.9633 2.87504 -23.281 3.27026C-23.591 3.66549 -23.8351 4.11883 -24.0134 4.6303C-24.1839 5.13402 -24.2691 5.66873 -24.2691 6.23445ZM-5.80981 -3.92514H-3.63607L1.90869 9.87283L7.44183 -3.92514H9.62719L2.74564 12.9998H1.0485L-5.80981 -3.92514ZM-6.51889 -3.92514H-4.60089L-4.28703 6.39719V12.9998H-6.51889V-3.92514ZM8.40664 -3.92514H10.3246V12.9998H8.09279V6.39719L8.40664 -3.92514ZM21.635 10.0937V0.422325H23.7971V12.9998H21.7397L21.635 10.0937ZM22.0419 7.44337L22.9369 7.42012C22.9369 8.25706 22.8478 9.03201 22.6696 9.74497C22.4991 10.4502 22.2201 11.0624 21.8326 11.5816C21.4452 12.1008 20.9376 12.5077 20.3099 12.8021C19.6822 13.0889 18.9188 13.2322 18.0199 13.2322C17.4077 13.2322 16.8458 13.1431 16.3344 12.9649C15.8307 12.7866 15.3967 12.5115 15.0325 12.1396C14.6682 11.7676 14.3854 11.2832 14.1839 10.6865C13.9902 10.0898 13.8933 9.37299 13.8933 8.53605V0.422325H16.0438V8.55929C16.0438 9.12501 16.1058 9.59385 16.2298 9.96583C16.3615 10.3301 16.5359 10.6207 16.7529 10.8376C16.9776 11.0469 17.2256 11.1941 17.4968 11.2794C17.7758 11.3646 18.0625 11.4072 18.357 11.4072C19.2714 11.4072 19.996 11.2329 20.5307 10.8841C21.0654 10.5277 21.449 10.0511 21.6815 9.45436C21.9218 8.8499 22.0419 8.17957 22.0419 7.44337ZM34.3984 9.6636C34.3984 9.35362 34.3287 9.06689 34.1892 8.8034C34.0575 8.53217 33.7824 8.28806 33.3639 8.07108C32.9532 7.84634 32.3332 7.6526 31.504 7.48986C30.8066 7.34262 30.175 7.16826 29.6093 6.96677C29.0513 6.76529 28.5747 6.52118 28.1795 6.23445C27.792 5.94772 27.4936 5.61061 27.2844 5.22314C27.0752 4.83566 26.9706 4.38232 26.9706 3.8631C26.9706 3.36713 27.0791 2.89829 27.296 2.45657C27.5208 2.01485 27.8346 1.6235 28.2376 1.28252C28.6483 0.941541 29.1404 0.674183 29.7139 0.480446C30.2873 0.286709 30.9267 0.18984 31.6319 0.18984C32.6393 0.18984 33.4995 0.368078 34.2125 0.724555C34.9254 1.08103 35.4718 1.55763 35.8515 2.15434C36.2312 2.7433 36.4211 3.39813 36.4211 4.11883H34.2706C34.2706 3.77011 34.166 3.433 33.9567 3.10752C33.7552 2.7743 33.4569 2.49919 33.0617 2.2822C32.6742 2.06522 32.1976 1.95672 31.6319 1.95672C31.0352 1.95672 30.5508 2.04972 30.1788 2.23571C29.8146 2.41395 29.5473 2.64256 29.3768 2.92154C29.214 3.20052 29.1327 3.495 29.1327 3.80498C29.1327 4.03746 29.1714 4.2467 29.2489 4.43269C29.3342 4.61093 29.4814 4.77754 29.6906 4.93253C29.8999 5.07977 30.1943 5.21926 30.5741 5.351C30.9538 5.48275 31.4381 5.61449 32.0271 5.74623C33.0578 5.97871 33.9064 6.25769 34.5728 6.58317C35.2393 6.90865 35.7352 7.30775 36.0607 7.78047C36.3862 8.25319 36.5489 8.82665 36.5489 9.50086C36.5489 10.0511 36.4327 10.5548 36.2002 11.012C35.9755 11.4692 35.6461 11.8645 35.2121 12.1977C34.7859 12.5232 34.2745 12.7789 33.6777 12.9649C33.0888 13.1431 32.4262 13.2322 31.69 13.2322C30.5818 13.2322 29.6441 13.0346 28.8769 12.6394C28.1097 12.2442 27.5285 11.7327 27.1333 11.105C26.7381 10.4773 26.5405 9.81471 26.5405 9.11726H28.7026C28.7336 9.70622 28.9041 10.1751 29.214 10.5238C29.524 10.8648 29.9037 11.1089 30.3532 11.2561C30.8027 11.3956 31.2483 11.4654 31.69 11.4654C32.279 11.4654 32.7711 11.3879 33.1663 11.2329C33.5693 11.0779 33.8754 10.8648 34.0846 10.5935C34.2938 10.3223 34.3984 10.0123 34.3984 9.6636ZM41.5357 -4.85508V12.9998H39.3736V-4.85508H41.5357ZM49.2194 0.422325L43.7327 6.29257L40.6639 9.47761L40.4896 7.18763L42.6865 4.56056L46.5923 0.422325H49.2194ZM47.2549 12.9998L42.7679 7.00165L43.8838 5.08365L49.789 12.9998H47.2549Z" fill="white"/>
<rect x="-10.4195" y="-36" width="84.6452" height="82" fill="url(#paint0_linear_0_1)"/>
<rect x="-853" y="-379" width="1440" height="742" fill="#A8FF35"/>
<rect x="-384" y="-93" width="502" height="202" rx="16" fill="#F5F5F5"/>
<rect x="-304" y="-33" width="341.226" height="82" fill="#030303"/>
<path d="M-212.012 -0.925142V15.9998H-214.256V-0.925142H-212.012ZM-204.921 6.68874V8.52537H-212.501V6.68874H-204.921ZM-203.771 -0.925142V0.911488H-212.501V-0.925142H-203.771ZM-199.086 3.42232V15.9998H-201.248V3.42232H-199.086ZM-201.411 0.086167C-201.411 -0.26256 -201.306 -0.557041 -201.097 -0.797275C-200.88 -1.03751 -200.562 -1.15763 -200.144 -1.15763C-199.733 -1.15763 -199.419 -1.03751 -199.202 -0.797275C-198.978 -0.557041 -198.865 -0.26256 -198.865 0.086167C-198.865 0.419395 -198.978 0.706127 -199.202 0.946361C-199.419 1.17885 -199.733 1.29509 -200.144 1.29509C-200.562 1.29509 -200.88 1.17885 -201.097 0.946361C-201.306 0.706127 -201.411 0.419395 -201.411 0.086167ZM-193.483 6.10752V15.9998H-195.634V3.42232H-193.599L-193.483 6.10752ZM-193.995 9.23445L-194.89 9.19957C-194.882 8.33938 -194.754 7.54506 -194.506 6.8166C-194.258 6.0804 -193.909 5.44107 -193.46 4.8986C-193.011 4.35614 -192.476 3.93767 -191.856 3.64319C-191.228 3.34096 -190.535 3.18984 -189.775 3.18984C-189.155 3.18984 -188.597 3.27508 -188.101 3.44557C-187.605 3.60831 -187.183 3.8718 -186.834 4.23602C-186.478 4.60025 -186.206 5.07297 -186.02 5.65418C-185.834 6.22764 -185.741 6.92897 -185.741 7.75817V15.9998H-187.904V7.73492C-187.904 7.07621 -188 6.54925 -188.194 6.15402C-188.388 5.75105 -188.671 5.46044 -189.043 5.2822C-189.415 5.09622 -189.872 5.00322 -190.414 5.00322C-190.949 5.00322 -191.437 5.11559 -191.879 5.34032C-192.313 5.56506 -192.689 5.87504 -193.007 6.27026C-193.317 6.66549 -193.561 7.11883 -193.739 7.6303C-193.909 8.13402 -193.995 8.66873 -193.995 9.23445ZM-174.547 13.5587V-1.85508H-172.385V15.9998H-174.361L-174.547 13.5587ZM-183.01 9.85053V9.60642C-183.01 8.64548 -182.894 7.77367 -182.661 6.99097C-182.421 6.20052 -182.084 5.52244 -181.65 4.95672C-181.208 4.39101 -180.685 3.95704 -180.08 3.65481C-179.468 3.34483 -178.786 3.18984 -178.035 3.18984C-177.244 3.18984 -176.554 3.32933 -175.966 3.60831C-175.369 3.87955 -174.865 4.27864 -174.454 4.80561C-174.036 5.32483 -173.707 5.95254 -173.466 6.68874C-173.226 7.42494 -173.059 8.25801 -172.966 9.18795V10.2574C-173.052 11.1796 -173.218 12.0088 -173.466 12.745C-173.707 13.4812 -174.036 14.1089 -174.454 14.6281C-174.865 15.1473 -175.369 15.5464 -175.966 15.8254C-176.562 16.0966 -177.26 16.2322 -178.058 16.2322C-178.794 16.2322 -179.468 16.0734 -180.08 15.7556C-180.685 15.4379 -181.208 14.9923 -181.65 14.4189C-182.084 13.8454 -182.421 13.1712 -182.661 12.3962C-182.894 11.6135 -183.01 10.765 -183.01 9.85053ZM-180.848 9.60642V9.85053C-180.848 10.4782 -180.786 11.0672 -180.662 11.6174C-180.53 12.1676 -180.328 12.652 -180.057 13.0704C-179.786 13.4889 -179.441 13.8183 -179.023 14.0585C-178.604 14.291 -178.104 14.4072 -177.523 14.4072C-176.81 14.4072 -176.225 14.2561 -175.768 13.9539C-175.303 13.6517 -174.931 13.2526 -174.652 12.7566C-174.373 12.2606 -174.156 11.722 -174.001 11.1408V8.33938C-174.094 7.91316 -174.23 7.50243 -174.408 7.10721C-174.578 6.70424 -174.803 6.34776 -175.082 6.03778C-175.353 5.72005 -175.69 5.46819 -176.093 5.2822C-176.489 5.09622 -176.957 5.00322 -177.5 5.00322C-178.089 5.00322 -178.596 5.12721 -179.023 5.3752C-179.441 5.61543 -179.786 5.94866 -180.057 6.37488C-180.328 6.79336 -180.53 7.28157 -180.662 7.83954C-180.786 8.38975 -180.848 8.97871 -180.848 9.60642ZM-163.772 3.42232V5.07297H-170.572V3.42232H-163.772ZM-168.27 0.365149H-166.12V12.8845C-166.12 13.3107 -166.054 13.6323 -165.922 13.8493C-165.79 14.0663 -165.62 14.2096 -165.411 14.2794C-165.201 14.3491 -164.977 14.384 -164.736 14.384C-164.558 14.384 -164.372 14.3685 -164.179 14.3375C-163.977 14.2987 -163.826 14.2677 -163.725 14.2445L-163.714 15.9998C-163.884 16.054 -164.109 16.1044 -164.388 16.1509C-164.659 16.2051 -164.988 16.2322 -165.376 16.2322C-165.903 16.2322 -166.387 16.1276 -166.829 15.9184C-167.271 15.7091 -167.623 15.3604 -167.887 14.8722C-168.142 14.3762 -168.27 13.7098 -168.27 12.8728V0.365149ZM-159.099 5.39845V15.9998H-161.249V3.42232H-159.157L-159.099 5.39845ZM-155.17 3.35258L-155.181 5.35195C-155.36 5.3132 -155.53 5.28995 -155.693 5.2822C-155.848 5.2667 -156.026 5.25896 -156.228 5.25896C-156.724 5.25896 -157.161 5.33645 -157.541 5.49144C-157.921 5.64643 -158.242 5.86342 -158.506 6.1424C-158.769 6.42138 -158.979 6.75461 -159.134 7.14208C-159.281 7.52181 -159.378 7.94028 -159.424 8.3975L-160.029 8.74623C-160.029 7.98678 -159.955 7.27382 -159.808 6.60737C-159.653 5.94091 -159.416 5.35195 -159.099 4.84048C-158.781 4.32127 -158.378 3.91829 -157.89 3.63156C-157.394 3.33708 -156.805 3.18984 -156.123 3.18984C-155.968 3.18984 -155.79 3.20921 -155.588 3.24796C-155.387 3.27896 -155.247 3.31383 -155.17 3.35258ZM-148.195 16.2322C-149.071 16.2322 -149.865 16.085 -150.578 15.7905C-151.283 15.4883 -151.892 15.0659 -152.403 14.5235C-152.907 13.981 -153.294 13.3378 -153.566 12.5939C-153.837 11.8499 -153.972 11.0362 -153.972 10.1528V9.66454C-153.972 8.64161 -153.821 7.73104 -153.519 6.93285C-153.217 6.1269 -152.806 5.44494 -152.287 4.88698C-151.768 4.32902 -151.179 3.90667 -150.52 3.61994C-149.861 3.33321 -149.179 3.18984 -148.474 3.18984C-147.575 3.18984 -146.8 3.34483 -146.149 3.65481C-145.491 3.96479 -144.952 4.39876 -144.534 4.95672C-144.115 5.50694 -143.805 6.1579 -143.604 6.9096C-143.402 7.65355 -143.301 8.46725 -143.301 9.35069V10.3155H-152.694V8.56024H-145.452V8.3975C-145.483 7.83954 -145.599 7.29707 -145.801 6.77011C-145.994 6.24314 -146.304 5.80917 -146.731 5.46819C-147.157 5.12721 -147.738 4.95672 -148.474 4.95672C-148.962 4.95672 -149.412 5.06134 -149.823 5.27058C-150.233 5.47207 -150.586 5.7743 -150.88 6.17727C-151.175 6.58024 -151.403 7.07234 -151.566 7.65355C-151.729 8.23476 -151.81 8.90509 -151.81 9.66454V10.1528C-151.81 10.7495 -151.729 11.3113 -151.566 11.8383C-151.396 12.3575 -151.152 12.8147 -150.834 13.2099C-150.508 13.6052 -150.117 13.9151 -149.66 14.1399C-149.195 14.3646 -148.668 14.477 -148.079 14.477C-147.319 14.477 -146.676 14.322 -146.149 14.012C-145.622 13.702 -145.161 13.2874 -144.766 12.7682L-143.464 13.8028C-143.735 14.2135 -144.08 14.6048 -144.499 14.9768C-144.917 15.3488 -145.432 15.651 -146.045 15.8835C-146.649 16.116 -147.366 16.2322 -148.195 16.2322ZM-138.64 6.10752V15.9998H-140.791V3.42232H-138.756L-138.64 6.10752ZM-139.152 9.23445L-140.047 9.19957C-140.039 8.33938 -139.911 7.54506 -139.663 6.8166C-139.415 6.0804 -139.066 5.44107 -138.617 4.8986C-138.167 4.35614 -137.633 3.93767 -137.013 3.64319C-136.385 3.34096 -135.691 3.18984 -134.932 3.18984C-134.312 3.18984 -133.754 3.27508 -133.258 3.44557C-132.762 3.60831 -132.34 3.8718 -131.991 4.23602C-131.635 4.60025 -131.363 5.07297 -131.177 5.65418C-130.991 6.22764 -130.898 6.92897 -130.898 7.75817V15.9998H-133.06V7.73492C-133.06 7.07621 -133.157 6.54925 -133.351 6.15402C-133.545 5.75105 -133.828 5.46044 -134.2 5.2822C-134.572 5.09622 -135.029 5.00322 -135.571 5.00322C-136.106 5.00322 -136.594 5.11559 -137.036 5.34032C-137.47 5.56506 -137.846 5.87504 -138.163 6.27026C-138.473 6.66549 -138.718 7.11883 -138.896 7.6303C-139.066 8.13402 -139.152 8.66873 -139.152 9.23445ZM-119.704 13.5587V-1.85508H-117.542V15.9998H-119.518L-119.704 13.5587ZM-128.167 9.85053V9.60642C-128.167 8.64548 -128.05 7.77367 -127.818 6.99097C-127.578 6.20052 -127.241 5.52244 -126.807 4.95672C-126.365 4.39101 -125.842 3.95704 -125.237 3.65481C-124.625 3.34483 -123.943 3.18984 -123.191 3.18984C-122.401 3.18984 -121.711 3.32933 -121.122 3.60831C-120.526 3.87955 -120.022 4.27864 -119.611 4.80561C-119.193 5.32483 -118.863 5.95254 -118.623 6.68874C-118.383 7.42494 -118.216 8.25801 -118.123 9.18795V10.2574C-118.209 11.1796 -118.375 12.0088 -118.623 12.745C-118.863 13.4812 -119.193 14.1089 -119.611 14.6281C-120.022 15.1473 -120.526 15.5464 -121.122 15.8254C-121.719 16.0966 -122.416 16.2322 -123.215 16.2322C-123.951 16.2322 -124.625 16.0734 -125.237 15.7556C-125.842 15.4379 -126.365 14.9923 -126.807 14.4189C-127.241 13.8454 -127.578 13.1712 -127.818 12.3962C-128.05 11.6135 -128.167 10.765 -128.167 9.85053ZM-126.005 9.60642V9.85053C-126.005 10.4782 -125.943 11.0672 -125.819 11.6174C-125.687 12.1676 -125.485 12.652 -125.214 13.0704C-124.943 13.4889 -124.598 13.8183 -124.18 14.0585C-123.761 14.291 -123.261 14.4072 -122.68 14.4072C-121.967 14.4072 -121.382 14.2561 -120.925 13.9539C-120.46 13.6517 -120.088 13.2526 -119.809 12.7566C-119.53 12.2606 -119.313 11.722 -119.158 11.1408V8.33938C-119.251 7.91316 -119.386 7.50243 -119.565 7.10721C-119.735 6.70424 -119.96 6.34776 -120.239 6.03778C-120.51 5.72005 -120.847 5.46819 -121.25 5.2822C-121.645 5.09622 -122.114 5.00322 -122.657 5.00322C-123.246 5.00322 -123.753 5.12721 -124.18 5.3752C-124.598 5.61543 -124.943 5.94866 -125.214 6.37488C-125.485 6.79336 -125.687 7.28157 -125.819 7.83954C-125.943 8.38975 -126.005 8.97871 -126.005 9.60642ZM-103.814 7.92091V9.68779H-109.486V7.92091H-103.814ZM-84.7268 14.1747V15.9998H-93.6891V14.1747H-84.7268ZM-93.2358 -0.925142V15.9998H-95.4793V-0.925142H-93.2358ZM-85.9125 6.35163V8.17664H-93.6891V6.35163H-85.9125ZM-84.8431 -0.925142V0.911488H-93.6891V-0.925142H-84.8431ZM-79.9376 -1.85508V15.9998H-82.0997V-1.85508H-79.9376ZM-77.0548 9.85053V9.58317C-77.0548 8.67648 -76.9231 7.83566 -76.6596 7.06071C-76.3961 6.27801 -76.0164 5.59993 -75.5204 5.02647C-75.0245 4.44526 -74.4239 3.99579 -73.7187 3.67806C-73.0135 3.35258 -72.223 3.18984 -71.3473 3.18984C-70.4639 3.18984 -69.6696 3.35258 -68.9643 3.67806C-68.2514 3.99579 -67.6469 4.44526 -67.151 5.02647C-66.6472 5.59993 -66.2636 6.27801 -66.0002 7.06071C-65.7367 7.83566 -65.6049 8.67648 -65.6049 9.58317V9.85053C-65.6049 10.7572 -65.7367 11.598 -66.0002 12.373C-66.2636 13.1479 -66.6472 13.826 -67.151 14.4072C-67.6469 14.9807 -68.2475 15.4302 -68.9527 15.7556C-69.6502 16.0734 -70.4406 16.2322 -71.3241 16.2322C-72.2075 16.2322 -73.0018 16.0734 -73.707 15.7556C-74.4122 15.4302 -75.0167 14.9807 -75.5204 14.4072C-76.0164 13.826 -76.3961 13.1479 -76.6596 12.373C-76.9231 11.598 -77.0548 10.7572 -77.0548 9.85053ZM-74.9043 9.58317V9.85053C-74.9043 10.4782 -74.8307 11.0711 -74.6835 11.629C-74.5362 12.1793 -74.3154 12.6675 -74.0209 13.0937C-73.7187 13.5199 -73.3428 13.857 -72.8933 14.105C-72.4439 14.3452 -71.9208 14.4654 -71.3241 14.4654C-70.7351 14.4654 -70.2198 14.3452 -69.778 14.105C-69.3286 13.857 -68.9566 13.5199 -68.6621 13.0937C-68.3676 12.6675 -68.1468 12.1793 -67.9995 11.629C-67.8445 11.0711 -67.7671 10.4782 -67.7671 9.85053V9.58317C-67.7671 8.96321 -67.8445 8.37813 -67.9995 7.82791C-68.1468 7.26995 -68.3715 6.77786 -68.6737 6.35163C-68.9682 5.91766 -69.3402 5.57668 -69.7897 5.3287C-70.2314 5.08072 -70.7506 4.95672 -71.3473 4.95672C-71.9363 4.95672 -72.4555 5.08072 -72.905 5.3287C-73.3467 5.57668 -73.7187 5.91766 -74.0209 6.35163C-74.3154 6.77786 -74.5362 7.26995 -74.6835 7.82791C-74.8307 8.37813 -74.9043 8.96321 -74.9043 9.58317ZM-60.7576 6.10752V15.9998H-62.9081V3.42232H-60.8739L-60.7576 6.10752ZM-61.2691 9.23445L-62.1642 9.19957C-62.1564 8.33938 -62.0285 7.54506 -61.7806 6.8166C-61.5326 6.0804 -61.1839 5.44107 -60.7344 4.8986C-60.2849 4.35614 -59.7502 3.93767 -59.1302 3.64319C-58.5025 3.34096 -57.8089 3.18984 -57.0495 3.18984C-56.4295 3.18984 -55.8716 3.27508 -55.3756 3.44557C-54.8796 3.60831 -54.4573 3.8718 -54.1086 4.23602C-53.7521 4.60025 -53.4809 5.07297 -53.2949 5.65418C-53.1089 6.22764 -53.0159 6.92897 -53.0159 7.75817V15.9998H-55.178V7.73492C-55.178 7.07621 -55.2749 6.54925 -55.4686 6.15402C-55.6623 5.75105 -55.9452 5.46044 -56.3172 5.2822C-56.6891 5.09622 -57.1464 5.00322 -57.6888 5.00322C-58.2235 5.00322 -58.7118 5.11559 -59.1535 5.34032C-59.5875 5.56506 -59.9633 5.87504 -60.281 6.27026C-60.591 6.66549 -60.8351 7.11883 -61.0134 7.6303C-61.1839 8.13402 -61.2691 8.66873 -61.2691 9.23445ZM-42.8098 -0.925142H-40.6361L-35.0913 12.8728L-29.5582 -0.925142H-27.3728L-34.2544 15.9998H-35.9515L-42.8098 -0.925142ZM-43.5189 -0.925142H-41.6009L-41.287 9.39719V15.9998H-43.5189V-0.925142ZM-28.5934 -0.925142H-26.6754V15.9998H-28.9072V9.39719L-28.5934 -0.925142ZM-15.365 13.0937V3.42232H-13.2029V15.9998H-15.2603L-15.365 13.0937ZM-14.9581 10.4434L-14.0631 10.4201C-14.0631 11.2571 -14.1522 12.032 -14.3304 12.745C-14.5009 13.4502 -14.7799 14.0624 -15.1674 14.5816C-15.5548 15.1008 -16.0624 15.5077 -16.6901 15.8021C-17.3178 16.0889 -18.0812 16.2322 -18.9801 16.2322C-19.5923 16.2322 -20.1542 16.1431 -20.6656 15.9649C-21.1693 15.7866 -21.6033 15.5115 -21.9675 15.1396C-22.3318 14.7676 -22.6146 14.2832 -22.8161 13.6865C-23.0098 13.0898 -23.1067 12.373 -23.1067 11.536V3.42232H-20.9562V11.5593C-20.9562 12.125 -20.8942 12.5939 -20.7702 12.9658C-20.6385 13.3301 -20.4641 13.6207 -20.2471 13.8376C-20.0224 14.0469 -19.7744 14.1941 -19.5032 14.2794C-19.2242 14.3646 -18.9375 14.4072 -18.643 14.4072C-17.7286 14.4072 -17.004 14.2329 -16.4693 13.8841C-15.9346 13.5277 -15.551 13.0511 -15.3185 12.4544C-15.0782 11.8499 -14.9581 11.1796 -14.9581 10.4434ZM-2.60155 12.6636C-2.60155 12.3536 -2.6713 12.0669 -2.81079 11.8034C-2.94253 11.5322 -3.21764 11.2881 -3.63611 11.0711C-4.04683 10.8463 -4.66679 10.6526 -5.49599 10.4899C-6.19344 10.3426 -6.82503 10.1683 -7.39074 9.96677C-7.9487 9.76529 -8.4253 9.52118 -8.82052 9.23445C-9.208 8.94772 -9.50635 8.61061 -9.71559 8.22314C-9.92482 7.83566 -10.0294 7.38232 -10.0294 6.8631C-10.0294 6.36713 -9.92095 5.89829 -9.70396 5.45657C-9.47923 5.01485 -9.16537 4.6235 -8.7624 4.28252C-8.35168 3.94154 -7.85958 3.67418 -7.28612 3.48045C-6.71266 3.28671 -6.07333 3.18984 -5.36812 3.18984C-4.36069 3.18984 -3.50049 3.36808 -2.78754 3.72456C-2.07459 4.08103 -1.52825 4.55763 -1.14852 5.15434C-0.768796 5.7433 -0.578933 6.39813 -0.578933 7.11883H-2.72942C-2.72942 6.77011 -2.83404 6.433 -3.04327 6.10752C-3.24476 5.7743 -3.54312 5.49919 -3.93834 5.2822C-4.32581 5.06522 -4.80241 4.95672 -5.36812 4.95672C-5.96483 4.95672 -6.44918 5.04972 -6.82115 5.23571C-7.18538 5.41395 -7.45274 5.64256 -7.62322 5.92154C-7.78596 6.20052 -7.86733 6.495 -7.86733 6.80498C-7.86733 7.03746 -7.82859 7.2467 -7.75109 7.43269C-7.66585 7.61093 -7.51861 7.77754 -7.30937 7.93253C-7.10013 8.07977 -6.80565 8.21926 -6.42593 8.351C-6.0462 8.48275 -5.56186 8.61449 -4.9729 8.74623C-3.94221 8.97871 -3.09364 9.25769 -2.42719 9.58317C-1.76073 9.90865 -1.26476 10.3078 -0.939285 10.7805C-0.613806 11.2532 -0.451066 11.8267 -0.451066 12.5009C-0.451066 13.0511 -0.567309 13.5548 -0.799794 14.012C-1.02453 14.4692 -1.35388 14.8645 -1.78785 15.1977C-2.21408 15.5232 -2.72554 15.7789 -3.32225 15.9649C-3.91122 16.1431 -4.5738 16.2322 -5.31 16.2322C-6.41818 16.2322 -7.35587 16.0346 -8.12307 15.6394C-8.89027 15.2442 -9.47148 14.7327 -9.8667 14.105C-10.2619 13.4773 -10.4595 12.8147 -10.4595 12.1173H-8.29743C-8.26643 12.7062 -8.09594 13.1751 -7.78596 13.5238C-7.47598 13.8648 -7.09626 14.1089 -6.64679 14.2561C-6.19732 14.3956 -5.75172 14.4654 -5.31 14.4654C-4.72104 14.4654 -4.22895 14.3879 -3.83372 14.2329C-3.43075 14.0779 -3.12464 13.8648 -2.91541 13.5935C-2.70617 13.3223 -2.60155 13.0123 -2.60155 12.6636ZM4.53575 -1.85508V15.9998H2.37364V-1.85508H4.53575ZM12.2194 3.42232L6.73273 9.29257L3.66393 12.4776L3.48956 10.1876L5.68655 7.56056L9.59229 3.42232H12.2194ZM10.2549 15.9998L5.76792 10.0016L6.88384 8.08365L12.789 15.9998H10.2549Z" fill="white"/>
<rect x="-47.4195" y="-33" width="84.6452" height="82" fill="url(#paint1_linear_0_1)"/>
<rect width="2.64056" height="19.8042" rx="0.66129" transform="matrix(0.707101 -0.707112 0.707101 0.707112 0.193329 1.93164)" fill="white"/>
<rect width="2.64056" height="19.8042" rx="0.66129" transform="matrix(-0.707101 -0.707112 -0.707101 0.707112 16.0645 1.93164)" fill="white"/>
</g>
<defs>
<linearGradient id="paint0_linear_0_1" x1="74.2257" y1="5" x2="-10.4195" y2="5" gradientUnits="userSpaceOnUse">
<stop offset="0.536458" stop-color="#030303"/>
<stop offset="1" stop-color="#030303" stop-opacity="0.6"/>
</linearGradient>
<linearGradient id="paint1_linear_0_1" x1="37.2257" y1="8" x2="-47.4195" y2="8" gradientUnits="userSpaceOnUse">
<stop offset="0.536458" stop-color="#030303"/>
<stop offset="1" stop-color="#030303" stop-opacity="0.6"/>
</linearGradient>
<clipPath id="clip0_0_1">
<rect width="1440" height="7214" fill="white" transform="translate(-830 -1340)"/>
</clipPath>
</defs>
</svg>
