<svg width="42" height="38" viewBox="0 0 42 38" fill="none" xmlns="http://www.w3.org/2000/svg">
<rect width="42" height="38" fill="#E5E5E5"/>
<rect width="1440" height="7214" transform="translate(-828 -498)" fill="white"/>
<rect x="-828" y="-498" width="1440" height="900" fill="black"/>
<g clip-path="url(#clip0_0_1)">
<path d="M40.9312 10.422C41.3813 12.0722 40.659 13.3427 39.8416 14.4267C38.6846 15.9196 37.3551 17.3047 35.9306 18.5034C29.2238 23.8535 21.476 25.8576 13.0029 24.9813C10.8494 24.7508 8.69337 24.2083 6.30414 23.7458C6.77462 25.9732 8.56574 27.6426 9.17692 29.9155C8.16294 29.8466 7.70531 29.1796 7.31106 28.6369C5.70239 26.4041 4.10893 24.1243 2.57757 21.8128C1.85118 20.6957 1.95504 20.055 3.07289 19.4832C5.38588 18.2609 7.84599 17.8645 10.3911 18.3255C10.4849 18.3559 10.58 18.5423 10.7537 18.806C9.58401 20.6579 7.15666 19.3531 5.65614 20.7866C8.64883 22.5857 11.9266 23.0246 15.2017 23.1515C18.6328 23.2769 22.0143 23.0751 25.2957 22.0627C28.515 21.082 31.3704 19.4648 34.1611 17.5673C36.9836 15.7319 39.1621 13.3248 40.9312 10.422Z" fill="white"/>
</g>
<path d="M23.3072 -21.8923C23.8443 -22.0471 24.7552 -22.0076 25.3487 -22.0297C25.7614 -21.2684 25.2818 -18.982 26.107 -18.7967C26.4397 -18.7477 27.0801 -18.9478 27.1533 -19.3765C27.1107 -20.0426 26.964 -21.0575 26.9324 -21.6943C26.8309 -23.6758 26.4943 -25.4286 26.4844 -27.6116C26.4902 -28.4697 26.5905 -29.0222 25.8174 -29.0331C24.8354 -29.0659 24.5191 -27.6633 24.0422 -26.7421C23.0898 -24.9136 22.1514 -23.0837 21.2723 -21.149C21.0863 -20.7181 20.7786 -20.2014 20.7911 -19.9185C20.8058 -19.5228 21.5658 -19.1192 22.0472 -19.5472C22.4538 -20.0676 23.0743 -21.2834 23.3072 -21.8923ZM25.0997 -25.6878C25.2625 -25.361 25.3294 -23.9885 25.2569 -23.433C25.0584 -23.2849 24.3058 -23.2233 23.9958 -23.3544C24.1496 -24.0139 24.6909 -25.2803 24.9744 -25.7009C25.0162 -25.6965 25.058 -25.6922 25.0997 -25.6878ZM30.4672 -28.7696C29.4897 -28.5767 29.4247 -27.021 29.2058 -25.8756C28.891 -24.2194 28.5936 -22.9978 28.2187 -21.3057C28.0789 -20.6447 27.457 -18.8801 27.9026 -18.5658C28.28 -18.2727 28.9212 -18.6136 29.1351 -19.0416C29.2772 -19.3222 29.532 -20.4075 29.6162 -20.8069C30.0124 -22.8346 30.4239 -24.6073 30.801 -26.7215C30.9569 -27.5356 31.4726 -28.9595 30.4672 -28.7696ZM33.3634 -28.4652C32.3859 -28.2723 32.3209 -26.7166 32.102 -25.5712C31.7871 -23.915 31.4898 -22.6934 31.1149 -21.0013C30.975 -20.3403 30.3532 -18.5757 30.7987 -18.2614C31.1762 -17.9683 31.8173 -18.3092 32.0312 -18.7372C32.1733 -19.0178 32.4282 -20.1031 32.5124 -20.5025C32.9085 -22.5302 33.3201 -24.3029 33.6971 -26.4171C33.8531 -27.2313 34.3687 -28.6552 33.3634 -28.4652ZM39.9471 -24.3525C39.8365 -24.5049 39.6225 -24.6118 39.4122 -24.6199C38.6574 -24.671 38.6325 -24.1669 38.3989 -23.1497C38.1551 -22.0351 37.9158 -20.1598 37.6983 -19.0284C37.6258 -18.7404 37.5364 -18.426 37.5746 -18.2531C37.6266 -18.0787 37.9015 -17.8809 38.1088 -17.845C38.635 -17.7615 38.9025 -17.7616 39.0915 -18.2203C39.32 -18.7875 39.4714 -20.3623 39.582 -21.0123C39.6069 -21.249 40.621 -21.79 41.2094 -21.8971C41.4549 -21.9557 42.0697 -22.046 42.3694 -22.0849C42.6552 -22.1252 43.204 -22.3913 43.179 -22.957C43.1511 -23.2274 42.8359 -23.4435 42.5465 -23.5021C42.0526 -23.6244 41.4583 -23.4616 41.0677 -23.3619C40.705 -23.2593 40.1848 -22.8635 39.8484 -23.0115C39.9246 -23.468 40.0505 -23.863 39.9471 -24.3525ZM44.9313 -19.1691C45.2772 -19.2454 45.8656 -19.3524 46.3104 -19.4324C46.9699 -19.5461 47.3106 -19.7073 47.9606 -19.8643C48.3497 -19.9501 48.664 -20.3956 48.6757 -20.7745C48.702 -21.0251 48.5656 -21.6025 48.4857 -21.7799C48.0348 -23.249 46.9355 -23.7728 45.5213 -23.4428C44.9468 -23.3343 44.2632 -22.8571 43.8632 -22.2657C43.3532 -21.6999 43.1079 -20.8388 43.2466 -19.6136C43.5025 -18.4324 43.8221 -17.9906 44.9016 -17.4126C45.5722 -16.962 46.9557 -16.9996 47.7199 -17.4401C47.9771 -17.6102 48.0921 -18.0345 47.8194 -18.3869C47.324 -18.7628 46.8551 -18.0519 45.9427 -18.3449C45.3433 -18.5346 44.9944 -18.6979 44.9313 -19.1691ZM45.2079 -21.8006C46.1597 -22.4185 46.9893 -22.275 47.2401 -21.1788C47.1456 -20.9494 46.7169 -20.7551 46.3894 -20.7192C45.8918 -20.6729 45.0132 -20.4837 44.767 -20.5518C44.6819 -20.8142 44.8152 -21.5463 45.2079 -21.8006ZM52.2012 -23.0786C51.4406 -23.0741 50.7195 -22.9106 50.1539 -22.3506C49.9326 -22.1205 49.7986 -21.5152 49.7884 -21.1502C49.7687 -20.5611 50.3052 -20.0401 50.742 -19.6423C51.1026 -19.3229 51.9982 -18.736 51.8517 -18.1461C50.8963 -17.0922 50.4675 -18.2353 49.6819 -17.9941C49.5368 -17.953 49.3537 -17.8174 49.3127 -17.695C49.1127 -16.9981 49.2886 -16.7966 50.4443 -16.4077C50.9338 -16.2436 51.7113 -16.2745 52.129 -16.4981C52.71 -16.803 53.217 -17.341 53.3254 -18.1038C53.4615 -19.1312 52.6458 -19.8082 52.1218 -20.3138C52.0067 -20.4244 51.3207 -20.8625 51.3896 -21.2494C51.4642 -21.692 51.923 -21.7705 52.6668 -21.4812C52.9321 -21.3266 53.5213 -20.772 53.8232 -20.9655C53.9712 -21.0344 54.3068 -21.2807 54.3031 -21.6471C54.2986 -22.1402 53.7922 -22.5454 53.2587 -22.8267C52.9919 -22.9673 52.2723 -23.0852 52.2012 -23.0786ZM56.6383 -17.9386C56.9842 -18.0149 57.5726 -18.122 58.0174 -18.2019C58.6769 -18.3156 59.0176 -18.4769 59.6676 -18.6338C60.0567 -18.7196 60.371 -19.1652 60.3827 -19.544C60.409 -19.7947 60.2726 -20.3721 60.1927 -20.5494C59.7418 -22.0186 58.6425 -22.5424 57.2283 -22.2124C56.6538 -22.1038 55.9702 -21.6267 55.5702 -21.0353C55.0602 -20.4695 54.8149 -19.6084 54.9536 -18.3832C55.2095 -17.202 55.5291 -16.7601 56.6086 -16.1821C57.2792 -15.7316 58.6627 -15.7692 59.4269 -16.2097C59.6841 -16.3797 59.7991 -16.804 59.5264 -17.1565C59.031 -17.5323 58.5621 -16.8214 57.6497 -17.1144C57.0503 -17.3041 56.7014 -17.4675 56.6383 -17.9386ZM56.9149 -20.5701C57.8667 -21.188 58.6963 -21.0445 58.9471 -19.9483C58.8526 -19.7189 58.4239 -19.5247 58.0964 -19.4887C57.5988 -19.4425 56.7202 -19.2533 56.474 -19.3214C56.3889 -19.5837 56.5222 -20.3158 56.9149 -20.5701ZM62.374 -20.3765C62.8847 -20.2805 63.5354 -20.8456 64.5972 -20.903C64.913 -20.8275 65.3103 -20.0538 64.9125 -19.6169C64.6605 -19.3619 63.4718 -19.5713 62.7676 -19.4341C62.3646 -19.3498 61.8466 -19.1086 61.6311 -18.9342C61.2926 -18.6601 60.8794 -18.2108 60.955 -17.4568C60.9631 -17.1322 61.2109 -16.8105 61.4381 -16.5614C61.9819 -15.8426 62.5821 -15.5261 63.3699 -15.1196C63.5964 -14.9972 64.157 -14.8397 64.3981 -14.8566C64.7366 -14.8633 65.1513 -15.3265 65.2781 -15.5947C65.5799 -16.3231 65.7996 -17.0743 66.0376 -17.8657C66.2236 -18.5641 66.5378 -19.5447 66.4783 -20.4518C66.4431 -21.1876 66.0399 -21.9056 65.5577 -22.1393C64.701 -22.4264 63.988 -22.2058 63.064 -21.8524C62.598 -21.7043 62.0411 -21.4954 62.0522 -20.9311C62.0676 -20.6761 62.1197 -20.5017 62.374 -20.3765ZM63.6853 -18.2538C63.9513 -18.2399 64.4877 -18.2539 64.6526 -18.0817C64.6014 -17.5944 64.4572 -16.6241 64.0138 -16.5581C63.3558 -16.7258 62.3562 -17.1265 62.4271 -17.9355C62.6652 -18.192 63.1533 -18.2815 63.6853 -18.2538ZM69.3166 -21.2656C69.2059 -21.418 68.9919 -21.525 68.7816 -21.533C68.0268 -21.5842 68.002 -21.08 67.7684 -20.0629C67.5246 -18.9482 67.2852 -17.073 67.0678 -15.9415C66.9953 -15.6535 66.9059 -15.3391 66.944 -15.1662C66.9961 -14.9918 67.2709 -14.794 67.4783 -14.7581C68.0045 -14.6747 68.2719 -14.6747 68.4609 -15.1335C68.6895 -15.7007 68.8409 -17.2755 68.9515 -17.9255C68.9763 -18.1622 69.9904 -18.7032 70.5789 -18.8102C70.8243 -18.8689 71.4391 -18.9591 71.7388 -18.998C72.0246 -19.0384 72.5735 -19.3044 72.5484 -19.8702C72.5206 -20.1406 72.2054 -20.3567 71.916 -20.4153C71.422 -20.5376 70.8278 -20.3748 70.4372 -20.2751C70.0745 -20.1724 69.5543 -19.7766 69.2179 -19.9246C69.294 -20.3811 69.42 -20.7761 69.3166 -21.2656ZM77.3674 -15.0983C77.1306 -15.9256 76.4697 -15.5305 75.6643 -15.5025C74.5761 -15.4621 73.9693 -16.1171 73.7991 -16.9092C73.6415 -17.6859 74.6086 -18.5838 75.6243 -18.6037C76.0046 -18.606 76.3659 -18.4272 76.848 -18.461C77.2298 -18.4772 77.6262 -18.9001 77.558 -19.4563C77.4839 -19.9567 76.0666 -20.1339 75.6152 -20.125C74.4047 -20.1255 73.3583 -19.5457 72.7305 -18.5278C72.4323 -17.9679 72.187 -17.1068 72.3146 -16.4458C72.6673 -15.1137 73.5797 -14.2858 75.0109 -14.1072C76.3028 -13.9433 77.5742 -14.3868 77.3674 -15.0983ZM80.8132 -19.5083C80.6725 -19.509 80.9742 -20.5049 81.1053 -21.0824C81.1895 -21.4818 81.5199 -22.0805 81.3022 -22.5538C81.1864 -22.7913 80.8236 -22.9561 80.4961 -22.9201C79.8549 -22.8467 79.7356 -21.5783 79.557 -20.682C79.3827 -19.8276 79.2069 -19.2266 79.0026 -18.2205C78.6819 -16.7761 78.4629 -16.1656 78.1568 -14.8605C77.9759 -14.0771 77.9093 -13.3099 78.5132 -13.1619C79.383 -13.0001 79.4547 -13.6824 79.599 -14.3851C79.8678 -15.469 79.9087 -16.1263 80.2354 -17.0914C80.3973 -17.4263 80.6273 -17.74 80.9013 -17.9365C81.1475 -18.1358 81.4773 -18.3264 81.9367 -18.2781C82.1515 -18.0444 81.929 -16.463 81.9078 -16.1273C81.7372 -14.639 81.4678 -13.4145 81.5946 -13.1478C81.7214 -12.881 82.3209 -12.6913 82.6608 -12.9794C83.0455 -13.2909 83.1018 -14.2281 83.18 -15.1068C83.2678 -15.9422 83.4362 -17.0084 83.4662 -17.695C83.5114 -18.6616 83.3369 -19.6794 82.7374 -19.8691C81.9335 -20.1225 81.5401 -19.46 80.8132 -19.5083ZM9.93328 -13.444C9.17264 -13.4395 8.4516 -13.276 7.88597 -12.716C7.6647 -12.4859 7.5307 -11.8806 7.52049 -11.5157C7.5008 -10.9265 8.03729 -10.4056 8.4741 -10.0077C8.83468 -9.68828 9.73025 -9.10146 9.58378 -8.51154C8.62838 -7.45763 8.19952 -8.60072 7.414 -8.35951C7.26892 -8.31845 7.08574 -8.18285 7.04472 -8.06047C6.84478 -7.36355 7.02068 -7.16206 8.17636 -6.77313C8.66589 -6.60906 9.44338 -6.63996 9.86104 -6.86353C10.4421 -7.16846 10.9491 -7.70641 11.0574 -8.46927C11.1936 -9.49666 10.3779 -10.1736 9.85384 -10.6792C9.73877 -10.7898 9.05281 -11.2279 9.12163 -11.6148C9.19631 -12.0575 9.65502 -12.1359 10.3989 -11.8466C10.6642 -11.692 11.2534 -11.1374 11.5553 -11.3309C11.7033 -11.3998 12.0389 -11.6461 12.0352 -12.0125C12.0307 -12.5056 11.5243 -12.9108 10.9907 -13.1921C10.724 -13.3328 10.0044 -13.4506 9.93328 -13.444ZM16.4692 -12.6022C16.4155 -13.5651 16.7057 -13.9147 16.8807 -14.6424C17.0572 -15.1165 17.1788 -15.4698 16.4783 -15.5012C15.3725 -15.5611 15.3873 -14.6304 15.1771 -13.836C15.0877 -13.5217 14.9303 -12.6936 14.676 -12.5514C14.4372 -12.4216 13.4779 -12.5365 13.1782 -12.4977C12.8881 -12.4155 12.6221 -12.1619 12.5525 -11.9018C12.458 -11.6724 12.5101 -11.2305 12.7864 -11.0467C13.1697 -10.8093 14.1897 -11.1385 14.458 -10.7443C14.3174 -9.94258 14.2362 -9.30357 14.097 -8.78326C14.0567 -8.53411 13.7784 -7.4935 13.7103 -7.24727C13.6591 -7.02742 13.2269 -5.86221 13.287 -5.63066C13.364 -5.42549 13.7964 -5.25335 14.1071 -5.26293C14.8135 -5.28722 15.0595 -6.82393 15.2067 -7.28707C15.2777 -7.56115 15.5296 -8.61861 15.5868 -8.89415C15.6636 -9.22392 15.9265 -10.787 16.2144 -10.982C16.4885 -11.1784 17.6199 -10.9609 18.075 -11.1384C18.3835 -11.2608 18.593 -11.647 18.5489 -12.0317C18.4785 -12.7007 16.7697 -12.2469 16.4692 -12.6022ZM20.1196 -10.7404C20.6304 -10.6445 21.281 -11.2096 22.3429 -11.2669C22.6587 -11.1915 23.056 -10.4177 22.6582 -9.98094C22.4061 -9.72589 21.2175 -9.93528 20.5133 -9.79814C20.1103 -9.7138 19.5922 -9.47263 19.3768 -9.29819C19.0383 -9.02408 18.6251 -8.57481 18.7007 -7.82078C18.7088 -7.49615 18.9565 -7.17449 19.1837 -6.92538C19.7276 -6.20659 20.3278 -5.89012 21.1156 -5.48354C21.3421 -5.3612 21.9027 -5.20374 22.1437 -5.22063C22.4823 -5.22728 22.897 -5.69047 23.0237 -5.95869C23.3255 -6.68714 23.5452 -7.43829 23.7833 -8.22974C23.9693 -8.92812 24.2835 -9.90865 24.224 -10.8158C24.1887 -11.5516 23.7856 -12.2696 23.3033 -12.5033C22.4467 -12.7904 21.7337 -12.5698 20.8097 -12.2164C20.3437 -12.0683 19.7868 -11.8594 19.7979 -11.2951C19.8133 -11.0401 19.8653 -10.8657 20.1196 -10.7404ZM21.4309 -8.61775C21.6969 -8.60387 22.2333 -8.61788 22.3983 -8.4457C22.347 -7.95838 22.2028 -6.98814 21.7595 -6.92212C21.1014 -7.08983 20.1018 -7.49051 20.1728 -8.29952C20.4109 -8.55604 20.8989 -8.64551 21.4309 -8.61775ZM27.0623 -11.6296C26.9516 -11.782 26.7376 -11.889 26.5273 -11.897C25.7725 -11.9482 25.7477 -11.444 25.5141 -10.4269C25.2702 -9.31224 25.0309 -7.43699 24.8134 -6.30552C24.7409 -6.01752 24.6516 -5.70314 24.6897 -5.5302C24.7418 -5.35581 25.0166 -5.158 25.224 -5.12212C25.7501 -5.03867 26.0176 -5.03871 26.2066 -5.49747C26.4351 -6.06468 26.5866 -7.63948 26.6971 -8.28949C26.722 -8.52618 27.7361 -9.06714 28.3245 -9.17422C28.57 -9.23289 29.1848 -9.32312 29.4845 -9.362C29.7703 -9.40235 30.3191 -9.66844 30.2941 -10.2342C30.2662 -10.5046 29.9511 -10.7207 29.6616 -10.7793C29.1677 -10.9016 28.5734 -10.7388 28.1829 -10.6391C27.8202 -10.5364 27.2999 -10.1406 26.9636 -10.2886C27.0397 -10.7451 27.1657 -11.1401 27.0623 -11.6296ZM34.5124 -10.7058C34.4587 -11.6687 34.7489 -12.0183 34.9239 -12.746C35.1004 -13.2201 35.222 -13.5733 34.5214 -13.6047C33.4157 -13.6647 33.4305 -12.734 33.2203 -11.9396C33.1309 -11.6252 32.9735 -10.7972 32.7192 -10.655C32.4804 -10.5252 31.5211 -10.6401 31.2214 -10.6012C30.9312 -10.5191 30.6653 -10.2655 30.5957 -10.0054C30.5012 -9.776 30.5533 -9.33413 30.8296 -9.15024C31.2129 -8.91288 32.2329 -9.24206 32.5012 -8.84786C32.3606 -8.04616 32.2793 -7.40715 32.1402 -6.88685C32.0999 -6.63769 31.8216 -5.59708 31.7535 -5.35085C31.7023 -5.13101 31.2701 -3.9658 31.3302 -3.73424C31.4072 -3.52907 31.8396 -3.35693 32.1503 -3.36651C32.8567 -3.3908 33.1027 -4.92751 33.2499 -5.39066C33.3209 -5.66473 33.5728 -6.72219 33.6299 -6.99773C33.7068 -7.3275 33.9697 -8.89059 34.2576 -9.08556C34.5317 -9.28199 35.6631 -9.06453 36.1182 -9.24194C36.4266 -9.36436 36.6362 -9.75058 36.5921 -10.1353C36.5217 -10.8043 34.8129 -10.3505 34.5124 -10.7058ZM43.3136 -6.23333C43.7547 -6.4122 44.2707 -6.23128 44.81 -6.27313C45.3215 -6.31791 45.5214 -7.2823 44.9168 -7.557C44.2426 -7.83902 43.981 -7.62721 43.5545 -7.85504C43.3697 -8.24046 43.7153 -9.92154 43.8428 -10.3305C44.0537 -10.9981 44.3987 -12.271 45.0531 -12.2022C45.4429 -12.1612 45.4862 -11.6358 45.5823 -11.3442C45.6783 -11.0525 45.7597 -10.6217 46.0228 -10.58C46.3328 -10.4488 46.8179 -10.5105 46.9717 -10.9025C47.1109 -11.1554 47.1196 -11.7738 46.8982 -12.3461C46.5999 -13.1236 46.0274 -13.7046 45.0448 -13.5967C44.0343 -13.4918 43.443 -12.8219 42.9214 -11.8772C42.4533 -11.0396 42.2629 -10.2994 42.0388 -9.23905C41.9663 -8.95105 41.9869 -8.34356 41.8441 -8.18965C41.669 -7.9969 41.8309 -8.06434 41.4396 -8.0914C41.0761 -8.11552 40.6504 -7.94911 40.5596 -7.6208C40.5017 -7.47204 40.4255 -7.28297 40.5985 -7.05363C41.0346 -6.51509 41.0221 -6.79795 41.6868 -6.55916C41.7968 -5.73112 41.3984 -4.35121 41.5143 -3.57887C41.5913 -3.10623 42.6033 -2.95763 42.8568 -3.49407C43.1527 -4.16682 43.0931 -5.87642 43.3136 -6.23333ZM48.7359 -9.35163C48.6252 -9.50404 48.4112 -9.61099 48.2009 -9.61902C47.4461 -9.67019 47.4213 -9.16603 47.1877 -8.14887C46.9438 -7.03426 46.7045 -5.159 46.487 -4.02753C46.4145 -3.73953 46.3252 -3.42515 46.3633 -3.25222C46.4154 -3.07782 46.6902 -2.88001 46.8976 -2.84414C47.4237 -2.76068 47.6912 -2.76072 47.8802 -3.21948C48.1087 -3.7867 48.2602 -5.3615 48.3707 -6.0115C48.3956 -6.2482 49.4097 -6.78916 49.9981 -6.89624C50.2436 -6.9549 50.8584 -7.04513 51.1581 -7.08402C51.4439 -7.12436 51.9927 -7.39046 51.9677 -7.95617C51.9398 -8.22656 51.6247 -8.44269 51.3352 -8.50127C50.8413 -8.62357 50.247 -8.46079 49.8565 -8.36107C49.4937 -8.25842 48.9735 -7.86263 48.6371 -8.0106C48.7133 -8.46715 48.8393 -8.86214 48.7359 -9.35163ZM54.8282 -8.72538C54.3754 -8.70259 54.1365 -8.57285 53.776 -8.35735C53.203 -7.99526 53.1173 -7.84942 52.7444 -7.38184C52.0366 -6.54121 51.7152 -4.95613 52.3463 -3.86217C52.7062 -3.40203 53.4669 -2.87161 54.1697 -2.72736C55.0087 -2.54063 55.6741 -2.71001 56.2397 -3.00248C57.2289 -3.57421 57.9821 -4.57899 57.9445 -5.69503C58.0762 -7.48307 56.8852 -8.87519 54.8282 -8.72538ZM53.5163 -5.21729C53.4693 -6.10909 54.2737 -7.33371 55.0402 -7.39392C56.0339 -7.47249 56.7595 -6.34044 56.386 -5.19722C56.1948 -4.58384 55.5405 -4.11768 55.0957 -4.03774C54.1519 -3.89763 53.556 -4.52334 53.5163 -5.21729ZM60.423 -5.46269C60.368 -5.87671 61.0895 -7.78575 60.564 -8.27737C60.424 -8.41878 60.1052 -8.46636 59.9433 -8.39892C59.2985 -8.15699 59.2517 -7.44398 59.1272 -6.52797C59.057 -6.12712 58.9552 -5.56065 58.8366 -4.96781C58.7026 -4.3625 58.6213 -3.72349 58.5298 -3.25449C58.4141 -2.68948 58.2903 -2.18164 58.5652 -1.98383C58.7081 -1.87027 59.1829 -1.83443 59.4189 -1.93633C59.6841 -2.04922 59.923 -2.44643 60.1508 -2.87295C60.542 -3.64831 60.9735 -4.13789 61.4307 -4.73738C61.6761 -5.06351 61.893 -5.51935 62.3041 -5.54652C62.4903 -4.90756 62.124 -4.10143 61.9446 -3.33197C61.8721 -3.04397 61.7674 -2.71712 61.7762 -2.53319C61.8225 -1.76816 62.7033 -1.84451 63.1634 -2.20439C63.7606 -2.66248 64.3042 -3.54851 64.7474 -4.14947C64.8991 -4.38692 65.0925 -4.61998 65.3717 -4.73141C65.4106 -4.16423 65.2326 -3.67616 65.1118 -3.19616C65.0078 -2.74255 64.8122 -2.0874 64.857 -1.57592C64.9348 -0.709035 65.9592 -0.81252 66.2574 -1.37242C66.4149 -1.66556 66.5188 -2.38665 66.606 -2.81388C66.699 -3.29681 66.7795 -3.79512 66.8835 -4.24873C67.0431 -4.96397 67.5536 -6.74034 66.9673 -7.05535C66.2601 -7.4253 65.6652 -6.58689 65.3304 -6.21384C65.123 -5.98225 64.8248 -5.68981 64.616 -5.4443C64.4072 -5.19878 64.1625 -5.01334 63.75 -4.70477C63.8765 -6.04287 63.8909 -7.78692 62.5082 -7.35509C61.9696 -7.18646 61.4495 -6.5232 61.0978 -6.12378C60.9073 -5.91856 60.5864 -5.54406 60.423 -5.46269ZM74.2917 -6.1166C74.151 -6.11731 74.4527 -7.11322 74.5838 -7.69068C74.668 -8.09007 74.9984 -8.68881 74.7807 -9.16216C74.6649 -9.39957 74.3021 -9.56439 73.9746 -9.52844C73.3334 -9.45505 73.2142 -8.18657 73.0355 -7.29034C72.8612 -6.43587 72.6854 -5.83495 72.4812 -4.8288C72.1604 -3.38441 71.9414 -2.77396 71.6353 -1.4688C71.4544 -0.685419 71.3879 0.081826 71.9917 0.229755C72.8616 0.391566 72.9333 -0.290676 73.0775 -0.993448C73.3463 -2.07729 73.3872 -2.73461 73.7139 -3.69975C73.8758 -4.03467 74.1058 -4.34834 74.3799 -4.54477C74.6261 -4.74413 74.9558 -4.93471 75.4153 -4.88641C75.63 -4.65269 75.4075 -3.07128 75.3863 -2.73566C75.2158 -1.24733 74.9463 -0.02279 75.0731 0.243927C75.1999 0.510644 75.7994 0.700343 76.1394 0.412302C76.524 0.100804 76.5803 -0.836448 76.6586 -1.71508C76.7464 -2.55048 76.9147 -3.61672 76.9447 -4.30335C76.99 -5.26991 76.8154 -6.28774 76.2159 -6.47743C75.412 -6.73086 75.0186 -6.06835 74.2917 -6.1166ZM79.5135 -1.45724C79.8594 -1.53351 80.4478 -1.64059 80.8926 -1.72053C81.5521 -1.83422 81.8928 -1.99549 82.5428 -2.15241C82.9319 -2.2382 83.2462 -2.68379 83.2579 -3.06265C83.2842 -3.31327 83.1478 -3.89069 83.0679 -4.06801C82.617 -5.53719 81.5177 -6.06097 80.1035 -5.73099C79.529 -5.62244 78.8454 -5.14529 78.4454 -4.55386C77.9354 -3.98806 77.6901 -3.12699 77.8288 -1.90178C78.0847 -0.720559 78.4043 -0.278735 79.4838 0.299269C80.1543 0.749832 81.5379 0.712242 82.3021 0.271713C82.5593 0.101665 82.6743 -0.322641 82.4016 -0.675072C81.9062 -1.05092 81.4373 -0.340034 80.5249 -0.633008C79.9255 -0.822707 79.5766 -0.986065 79.5135 -1.45724ZM79.7901 -4.08875C80.7419 -4.70664 81.5715 -4.56314 81.8223 -3.46692C81.7278 -3.23755 81.2991 -3.04329 80.9716 -3.00733C80.474 -2.96108 79.5954 -2.77189 79.3492 -2.84C79.2641 -3.10232 79.3974 -3.83441 79.7901 -4.08875ZM86.1275 -5.42161C86.0169 -5.57401 85.8029 -5.68096 85.5926 -5.68899C84.8378 -5.74017 84.8129 -5.236 84.5793 -4.21885C84.3355 -3.10423 84.0962 -1.22898 83.8787 -0.0975078C83.8062 0.190491 83.7169 0.504874 83.755 0.677807C83.807 0.852204 84.0819 1.05001 84.2893 1.08589C84.8154 1.16935 85.0829 1.1693 85.2719 0.710545C85.5004 0.143326 85.6519 -1.43147 85.7624 -2.08148C85.7873 -2.31817 86.8014 -2.85913 87.3898 -2.96621C87.6353 -3.02488 88.2501 -3.11511 88.5498 -3.15399C88.8356 -3.19434 89.3844 -3.46043 89.3594 -4.02614C89.3315 -4.29654 89.0164 -4.51266 88.7269 -4.57124C88.233 -4.69354 87.6387 -4.53077 87.2481 -4.43105C86.8854 -4.3284 86.3652 -3.93261 86.0288 -4.08058C86.105 -4.53712 86.2309 -4.93212 86.1275 -5.42161ZM91.1118 -0.238219C91.4576 -0.314484 92.046 -0.421564 92.4908 -0.501509C93.1503 -0.615195 93.4911 -0.776464 94.141 -0.933383C94.5301 -1.01918 94.8444 -1.46477 94.8561 -1.84363C94.8824 -2.09425 94.746 -2.67166 94.6661 -2.84899C94.2152 -4.31817 93.116 -4.84194 91.7017 -4.51196C91.1272 -4.40342 90.4436 -3.92626 90.0436 -3.33484C89.5337 -2.76904 89.2883 -1.90797 89.427 -0.68276C89.6829 0.498463 90.0025 0.940287 91.082 1.51829C91.7526 1.96885 93.1361 1.93126 93.9003 1.49074C94.1575 1.32069 94.2725 0.896381 93.9998 0.543951C93.5044 0.168105 93.0355 0.878989 92.1231 0.586015C91.5237 0.396315 91.1749 0.232957 91.1118 -0.238219ZM91.3883 -2.86972C92.3401 -3.48762 93.1697 -3.34412 93.4205 -2.2479C93.326 -2.01852 92.8973 -1.82426 92.5698 -1.78831C92.0722 -1.74206 91.1936 -1.55286 90.9474 -1.62097C90.8624 -1.8833 90.9956 -2.61538 91.3883 -2.86972Z" fill="white"/>
<defs>
<clipPath id="clip0_0_1">
<rect width="28.3944" height="34.4457" fill="white" transform="translate(41.518 10.6121) rotate(107.943)"/>
</clipPath>
</defs>
</svg>
