<svg width="17" height="17" viewBox="0 0 17 17" fill="none" xmlns="http://www.w3.org/2000/svg">
<rect width="17" height="17" fill="#E5E5E5"/>
<g clip-path="url(#clip0_0_1)">
<rect width="1440" height="7214" transform="translate(-674 -350)" fill="white"/>
<rect x="-674" y="-350" width="1440" height="900" fill="black"/>
</g>
<g clip-path="url(#clip1_0_1)">
<rect width="1440" height="7214" transform="translate(-733 -747)" fill="white"/>
<rect x="-733" y="-747" width="1440" height="900" fill="black"/>
<g opacity="0.8" filter="url(#filter0_f_0_1)">
<rect x="-45.8828" y="-78.2192" width="341.226" height="82" transform="rotate(-2 -45.8828 -78.2192)" fill="black"/>
</g>
<g opacity="0.8" filter="url(#filter1_f_0_1)">
<rect x="-293.84" y="-35.5264" width="341.226" height="82" transform="rotate(2 -293.84 -35.5264)" fill="black"/>
</g>
<rect x="-301.84" y="-43.5264" width="341.226" height="82" transform="rotate(2 -301.84 -43.5264)" fill="#181818"/>
<path d="M-207.386 2.16073L-211.906 2.00292L-211.842 0.179026L-207.323 0.336835C-206.448 0.367396 -205.734 0.252737 -205.182 -0.00714327C-204.63 -0.267023 -204.222 -0.640469 -203.957 -1.12748C-203.684 -1.61422 -203.536 -2.17513 -203.514 -2.8102C-203.494 -3.39106 -203.603 -3.94153 -203.84 -4.46161C-204.07 -4.98142 -204.451 -5.40568 -204.982 -5.7344C-205.513 -6.07087 -206.216 -6.25439 -207.092 -6.28495L-211.088 -6.4245L-211.614 8.65458L-213.857 8.57628L-213.266 -8.33831L-207.027 -8.12046C-205.75 -8.07584 -204.677 -7.81738 -203.809 -7.3451C-202.942 -6.87281 -202.293 -6.23758 -201.864 -5.4394C-201.434 -4.64897 -201.236 -3.75421 -201.271 -2.75514C-201.309 -1.67087 -201.57 -0.753346 -202.054 -0.00256975C-202.537 0.748206 -203.228 1.30954 -204.125 1.68144C-205.021 2.04559 -206.109 2.20535 -207.386 2.16073ZM-199.69 2.91802L-199.68 2.65083C-199.649 1.74469 -199.488 0.908978 -199.197 0.143696C-198.907 -0.629331 -198.504 -1.29375 -197.988 -1.84955C-197.472 -2.4131 -196.856 -2.84134 -196.14 -3.13426C-195.424 -3.43493 -194.628 -3.56998 -193.753 -3.53942C-192.87 -3.50859 -192.082 -3.31823 -191.389 -2.96834C-190.687 -2.62592 -190.099 -2.15563 -189.624 -1.55746C-189.14 -0.966768 -188.78 -0.275713 -188.544 0.515705C-188.308 1.29938 -188.206 2.14428 -188.237 3.05042L-188.247 3.31762C-188.278 4.22376 -188.439 5.05947 -188.73 5.82475C-189.02 6.59003 -189.427 7.25431 -189.951 7.81759C-190.467 8.37339 -191.082 8.80163 -191.799 9.1023C-192.507 9.3955 -193.302 9.52668 -194.185 9.49585C-195.068 9.46501 -195.856 9.27852 -196.55 8.93638C-197.243 8.58649 -197.832 8.11619 -198.315 7.5255C-198.791 6.92733 -199.146 6.23641 -199.383 5.45274C-199.619 4.66907 -199.721 3.82416 -199.69 2.91802ZM-197.531 2.72588L-197.541 2.99307C-197.562 3.6204 -197.51 4.21544 -197.382 4.77821C-197.254 5.33322 -197.05 5.82885 -196.771 6.26509C-196.484 6.7016 -196.12 7.05162 -195.679 7.31514C-195.238 7.57091 -194.72 7.70921 -194.123 7.73004C-193.535 7.75059 -193.016 7.64853 -192.566 7.42386C-192.108 7.19171 -191.724 6.8678 -191.415 6.45211C-191.106 6.03643 -190.868 5.55621 -190.702 5.01147C-190.528 4.45926 -190.429 3.86949 -190.408 3.24216L-190.398 2.97497C-190.377 2.35538 -190.434 1.76795 -190.569 1.21266C-190.697 0.649898 -190.904 0.150262 -191.192 -0.286248C-191.471 -0.730233 -191.831 -1.08398 -192.271 -1.3475C-192.704 -1.61075 -193.219 -1.75279 -193.815 -1.77361C-194.403 -1.79417 -194.927 -1.68837 -195.385 -1.45623C-195.835 -1.22381 -196.218 -0.896021 -196.536 -0.472861C-196.845 -0.0571759 -197.083 0.426909 -197.249 0.979395C-197.416 1.52414 -197.51 2.1063 -197.531 2.72588ZM-183.262 -0.521135L-183.786 14.465L-185.947 14.3895L-185.339 -3.01296L-183.364 -2.944L-183.262 -0.521135ZM-174.925 3.53857L-174.934 3.78253C-174.965 4.69641 -175.103 5.54068 -175.348 6.31533C-175.592 7.08223 -175.933 7.74494 -176.371 8.30345C-176.801 8.86223 -177.324 9.28984 -177.939 9.58628C-178.555 9.88272 -179.253 10.0173 -180.035 9.98996C-180.833 9.96211 -181.533 9.80583 -182.136 9.52115C-182.739 9.23646 -183.244 8.83497 -183.653 8.31669C-184.061 7.7984 -184.381 7.18241 -184.612 6.46871C-184.835 5.75528 -184.977 4.95549 -185.04 4.06934L-184.994 2.76822C-184.869 1.84209 -184.665 1.01561 -184.384 0.288784C-184.103 -0.438045 -183.744 -1.05361 -183.308 -1.5579C-182.863 -2.06967 -182.334 -2.45054 -181.721 -2.70051C-181.107 -2.95823 -180.405 -3.0733 -179.615 -3.04571C-178.825 -3.01812 -178.13 -2.83875 -177.529 -2.5076C-176.927 -2.18418 -176.427 -1.73249 -176.029 -1.15252C-175.631 -0.572545 -175.341 0.116076 -175.159 0.913346C-174.969 1.70314 -174.891 2.57821 -174.925 3.53857ZM-177.094 3.70707L-177.086 3.46311C-177.064 2.83578 -177.109 2.24488 -177.222 1.6904C-177.334 1.12818 -177.522 0.633095 -177.786 0.205141C-178.042 -0.230288 -178.379 -0.575483 -178.797 -0.830446C-179.214 -1.09315 -179.717 -1.23479 -180.306 -1.25534C-180.848 -1.27427 -181.324 -1.19783 -181.733 -1.02602C-182.134 -0.853939 -182.48 -0.613999 -182.77 -0.306199C-183.059 -0.00614456 -183.3 0.342137 -183.493 0.738645C-183.677 1.12768 -183.819 1.53369 -183.919 1.95668L-184.024 4.96552C-183.888 5.51307 -183.689 6.03179 -183.427 6.52171C-183.165 7.00387 -182.806 7.40022 -182.352 7.71075C-181.897 8.01353 -181.317 8.17723 -180.613 8.20184C-180.032 8.22213 -179.528 8.11953 -179.102 7.89404C-178.667 7.66109 -178.307 7.33636 -178.021 6.91986C-177.727 6.50364 -177.505 6.02288 -177.354 5.4776C-177.203 4.92457 -177.116 4.3344 -177.094 3.70707ZM-164.614 7.38802L-164.277 -2.27746L-162.116 -2.20201L-162.555 10.3678L-164.611 10.296L-164.614 7.38802ZM-164.115 4.7535L-163.22 4.76151C-163.249 5.59794 -163.365 6.36931 -163.568 7.07561C-163.763 7.77443 -164.064 8.37653 -164.469 8.88191C-164.874 9.38729 -165.396 9.77617 -166.033 10.0486C-166.671 10.3132 -167.439 10.4299 -168.337 10.3985C-168.949 10.3771 -169.507 10.2684 -170.012 10.0725C-170.509 9.87676 -170.933 9.58667 -171.284 9.20221C-171.635 8.81775 -171.901 8.32383 -172.082 7.72045C-172.255 7.11734 -172.326 6.39757 -172.297 5.56113L-172.014 -2.54765L-169.865 -2.4726L-170.149 5.65942C-170.169 6.22479 -170.123 6.69551 -170.012 7.07159C-169.893 7.44019 -169.729 7.7367 -169.52 7.96113C-169.302 8.17808 -169.06 8.33389 -168.792 8.42854C-168.516 8.52347 -168.231 8.57608 -167.936 8.58635C-167.022 8.61827 -166.292 8.4693 -165.746 8.13944C-165.199 7.80185 -164.799 7.33893 -164.546 6.7507C-164.285 6.15499 -164.141 5.48926 -164.115 4.7535ZM-156.321 -7.28026L-156.944 10.5637L-159.105 10.4883L-158.482 -7.35571L-156.321 -7.28026ZM-146.007 8.79384L-145.781 2.32308C-145.764 1.82742 -145.849 1.39407 -146.038 1.02303C-146.219 0.64452 -146.503 0.347686 -146.891 0.132529C-147.279 -0.0826287 -147.763 -0.200349 -148.344 -0.220633C-148.886 -0.239565 -149.366 -0.163261 -149.783 0.00827993C-150.192 0.180091 -150.518 0.412963 -150.761 0.706895C-150.996 1.0011 -151.12 1.32246 -151.132 1.67097L-153.281 1.59592C-153.265 1.14672 -153.134 0.705457 -152.886 0.272118C-152.638 -0.16122 -152.291 -0.548447 -151.845 -0.889561C-151.391 -1.23815 -150.854 -1.50632 -150.235 -1.69406C-149.608 -1.88928 -148.915 -1.97363 -148.156 -1.94713C-147.242 -1.91521 -146.442 -1.73219 -145.756 -1.39806C-145.062 -1.06366 -144.528 -0.575897 -144.155 0.0652232C-143.774 0.698869 -143.6 1.48425 -143.633 2.42137L-143.837 8.27642C-143.852 8.69464 -143.832 9.14118 -143.779 9.61604C-143.718 10.0912 -143.62 10.5017 -143.485 10.8476L-143.491 11.0335L-145.733 10.9552C-145.833 10.7036 -145.907 10.3714 -145.955 9.95881C-146.002 9.53842 -146.019 9.1501 -146.007 8.79384ZM-145.444 3.33514L-145.474 4.84618L-147.646 4.77032C-148.258 4.74896 -148.806 4.78023 -149.289 4.86414C-149.773 4.94031 -150.18 5.06953 -150.513 5.25179C-150.845 5.43405 -151.101 5.66935 -151.282 5.95771C-151.462 6.23831 -151.559 6.57224 -151.572 6.95947C-151.586 7.35446 -151.51 7.7177 -151.343 8.0492C-151.176 8.3807 -150.918 8.64948 -150.569 8.85554C-150.211 9.05413 -149.769 9.16262 -149.242 9.18101C-148.584 9.204 -147.998 9.08487 -147.485 8.82364C-146.972 8.56241 -146.561 8.23557 -146.253 7.84312C-145.937 7.45094 -145.76 7.0655 -145.724 6.68682L-144.842 7.7528C-144.908 8.07619 -145.068 8.43118 -145.322 8.81778C-145.575 9.20438 -145.91 9.57265 -146.325 9.92259C-146.733 10.2651 -147.216 10.5467 -147.774 10.7676C-148.324 10.981 -148.94 11.0758 -149.622 11.052C-150.474 11.0223 -151.215 10.8297 -151.846 10.4742C-152.47 10.119 -152.95 9.65636 -153.287 9.0863C-153.615 8.50876 -153.768 7.87148 -153.743 7.17445C-153.72 6.50065 -153.567 5.91277 -153.286 5.41081C-153.005 4.90111 -152.61 4.48453 -152.103 4.16107C-151.595 3.82986 -150.989 3.58736 -150.286 3.43357C-149.583 3.27978 -148.801 3.2179 -147.942 3.24792L-145.444 3.33514ZM-138.033 0.61632L-138.403 11.2112L-140.552 11.1361L-140.113 -1.43365L-138.022 -1.36063L-138.033 0.61632ZM-134.035 -1.29118L-134.116 0.706566C-134.293 0.661621 -134.463 0.632437 -134.625 0.619013C-134.78 0.598114 -134.957 0.584149 -135.159 0.577117C-135.654 0.559808 -136.095 0.621975 -136.48 0.763619C-136.864 0.905262 -137.193 1.11089 -137.467 1.38051C-137.74 1.65012 -137.96 1.97585 -138.129 2.35768C-138.289 2.73203 -138.401 3.14687 -138.463 3.60219L-139.079 3.92961C-139.053 3.17062 -138.954 2.46067 -138.784 1.79976C-138.606 1.13912 -138.349 0.558763 -138.014 0.0586962C-137.678 -0.449115 -137.261 -0.83778 -136.763 -1.1073C-136.257 -1.38429 -135.664 -1.51089 -134.982 -1.48709C-134.827 -1.48168 -134.65 -1.4561 -134.45 -1.41034C-134.249 -1.37233 -134.111 -1.33261 -134.035 -1.29118ZM-121.686 11.7949L-125.218 11.6716L-125.131 9.84854L-121.622 9.97105C-120.414 10.0132 -119.398 9.7967 -118.575 9.32141C-117.752 8.83839 -117.123 8.14696 -116.688 7.24714C-116.246 6.33985 -116.003 5.27049 -115.96 4.03907L-115.924 3.00514C-115.89 2.03705 -115.976 1.17332 -116.182 0.413963C-116.388 -0.353139 -116.707 -1.00398 -117.138 -1.53857C-117.569 -2.0809 -118.104 -2.49896 -118.746 -2.79274C-119.379 -3.08626 -120.114 -3.24762 -120.95 -3.27683L-124.761 -3.40989L-124.697 -5.2454L-120.886 -5.11234C-119.779 -5.07367 -118.774 -4.8525 -117.874 -4.44883C-116.972 -4.05292 -116.205 -3.49495 -115.571 -2.77493C-114.929 -2.06239 -114.447 -1.2081 -114.125 -0.212073C-113.803 0.77621 -113.663 1.88219 -113.706 3.10586L-113.741 4.11656C-113.784 5.34023 -114.001 6.43764 -114.391 7.40879C-114.781 8.37219 -115.326 9.18677 -116.023 9.85252C-116.714 10.5185 -117.538 11.0209 -118.495 11.3597C-119.445 11.691 -120.509 11.8361 -121.686 11.7949ZM-123.43 -5.20118L-124.021 11.7134L-126.263 11.6351L-125.672 -5.27948L-123.43 -5.20118ZM-105.767 12.5835C-106.642 12.5529 -107.431 12.378 -108.133 12.0589C-108.827 11.7322 -109.42 11.2889 -109.913 10.7289C-110.397 10.1692 -110.762 9.51285 -111.007 8.75988C-111.252 8.00692 -111.359 7.18898 -111.328 6.30608L-111.311 5.81816C-111.276 4.79585 -111.093 3.89111 -110.763 3.10395C-110.433 2.30904 -109.999 1.64183 -109.46 1.10233C-108.922 0.562823 -108.318 0.161288 -107.65 -0.10228C-106.982 -0.365849 -106.295 -0.485327 -105.591 -0.460716C-104.692 -0.429343 -103.923 -0.247402 -103.283 0.0851068C-102.636 0.417886 -102.113 0.87039 -101.714 1.44262C-101.315 2.0071 -101.028 2.66848 -100.853 3.42676C-100.677 4.17729 -100.605 4.994 -100.636 5.87691L-100.67 6.84113L-110.056 6.51334L-109.995 4.75915L-102.758 5.01189L-102.752 4.84925C-102.763 4.29054 -102.861 3.74435 -103.044 3.21068C-103.219 2.67727 -103.513 2.23275 -103.927 1.8771C-104.342 1.52146 -104.916 1.33079 -105.652 1.30509C-106.14 1.28805 -106.593 1.37692 -107.011 1.5717C-107.428 1.75873 -107.791 2.04847 -108.1 2.44092C-108.408 2.83337 -108.654 3.31719 -108.837 3.89236C-109.019 4.46754 -109.124 5.13463 -109.151 5.89361L-109.168 6.38153C-109.189 6.97788 -109.127 7.54222 -108.983 8.07454C-108.83 8.59939 -108.602 9.06485 -108.299 9.47093C-107.987 9.87727 -107.607 10.2007 -107.158 10.4413C-106.701 10.6821 -106.178 10.8128 -105.589 10.8333C-104.83 10.8598 -104.182 10.7274 -103.645 10.436C-103.107 10.1446 -102.632 9.74635 -102.219 9.24124L-100.954 10.3206C-101.239 10.7216 -101.598 11.1007 -102.029 11.4578C-102.46 11.815 -102.986 12.099 -103.606 12.31C-104.218 12.5213 -104.938 12.6124 -105.767 12.5835ZM-90.9234 9.53101C-90.9126 9.22121 -90.9723 8.93222 -91.1025 8.66403C-91.2247 8.38837 -91.4911 8.13481 -91.9018 7.90335C-92.3044 7.66442 -92.9172 7.44916 -93.7402 7.25758C-94.4321 7.08609 -95.0572 6.88979 -95.6156 6.66868C-96.1662 6.44785 -96.634 6.18725 -97.0189 5.8869C-97.3962 5.58682 -97.6826 5.23951 -97.8782 4.84497C-98.0737 4.45043 -98.1625 3.99371 -98.1444 3.47481C-98.127 2.97915 -98.0023 2.51437 -97.77 2.08049C-97.53 1.64688 -97.2027 1.26673 -96.788 0.94002C-96.3657 0.613584 -95.8645 0.363563 -95.2847 0.189957C-94.7048 0.0163517 -94.0625 -0.0581456 -93.3577 -0.0335343C-92.3509 0.00162461 -91.4974 0.209775 -90.7973 0.590916C-90.0973 0.972058 -89.5679 1.46743 -89.2092 2.07703C-88.8503 2.67888 -88.6834 3.33994 -88.7085 4.06021L-90.8577 3.98516C-90.8455 3.63664 -90.9383 3.29609 -91.1361 2.96351C-91.3258 2.62345 -91.6144 2.3381 -92.0018 2.10745C-92.3815 1.87708 -92.854 1.75202 -93.4193 1.73227C-94.0157 1.71145 -94.503 1.78748 -94.8812 1.96038C-95.2514 2.12579 -95.5266 2.34494 -95.7067 2.6178C-95.8791 2.89093 -95.9707 3.18239 -95.9815 3.49218C-95.9896 3.72453 -95.9582 3.93499 -95.8873 4.12357C-95.8083 4.30467 -95.667 4.47632 -95.4633 4.63852C-95.2593 4.79297 -94.9699 4.94266 -94.595 5.08757C-94.2201 5.23248 -93.7406 5.38105 -93.1566 5.53326C-92.1347 5.80158 -91.2964 6.11 -90.6417 6.45854C-89.987 6.80708 -89.5052 7.22325 -89.1964 7.70704C-88.8877 8.19083 -88.745 8.76962 -88.7686 9.44342C-88.7878 9.9933 -88.9215 10.4926 -89.1698 10.9415C-89.4104 11.3906 -89.7533 11.7741 -90.1987 12.0919C-90.636 12.4024 -91.1561 12.6401 -91.7589 12.8051C-92.3537 12.9627 -93.019 13.0286 -93.7548 13.003C-94.8623 12.9643 -95.7925 12.7341 -96.5454 12.3123C-97.2984 11.8905 -97.8614 11.3591 -98.2345 10.718C-98.6075 10.0769 -98.7819 9.40779 -98.7576 8.71076L-96.5968 8.78622C-96.5863 9.3759 -96.4323 9.85041 -96.1347 10.2097C-95.8368 10.5613 -95.4658 10.8185 -95.0218 10.9814C-94.5774 11.1365 -94.1346 11.2217 -93.6931 11.2371C-93.1045 11.2577 -92.61 11.1974 -92.2096 11.0563C-91.8015 10.9155 -91.4881 10.7132 -91.2695 10.4494C-91.051 10.1857 -90.9356 9.87952 -90.9234 9.53101ZM-83.2937 0.550534L-83.7327 13.1203L-85.8934 13.0448L-85.4545 0.475077L-83.2937 0.550534ZM-85.5007 -2.86473C-85.4885 -3.21324 -85.3737 -3.50389 -85.1562 -3.73668C-84.931 -3.96919 -84.6092 -4.07815 -84.191 -4.06355C-83.7806 -4.04921 -83.4711 -3.91821 -83.2626 -3.67055C-83.0464 -3.42262 -82.9444 -3.1244 -82.9565 -2.77588C-82.9682 -2.44286 -83.0905 -2.16022 -83.3235 -1.92798C-83.5484 -1.70321 -83.8662 -1.59799 -84.2766 -1.61232C-84.6948 -1.62693 -85.0083 -1.75419 -85.2171 -1.9941C-85.4178 -2.24149 -85.5123 -2.5317 -85.5007 -2.86473ZM-71.6998 0.955403L-69.7481 1.02356L-70.1777 13.3261C-70.2164 14.4336 -70.474 15.3707 -70.9505 16.1372C-71.427 16.9037 -72.075 17.4743 -72.8945 17.8489C-73.7066 18.2315 -74.6354 18.4046 -75.6809 18.3681C-76.1146 18.3529 -76.6233 18.2654 -77.2071 18.1054C-77.7833 17.9535 -78.3485 17.705 -78.9025 17.3599C-79.449 17.0229 -79.9026 16.5767 -80.2631 16.0214L-79.0916 14.7828C-78.5872 15.4363 -78.0527 15.8969 -77.4883 16.1648C-76.9161 16.4329 -76.3473 16.5768 -75.7819 16.5966C-75.1004 16.6204 -74.5073 16.5131 -74.0027 16.2749C-73.4981 16.0366 -73.1015 15.6705 -72.8128 15.1765C-72.5167 14.6906 -72.356 14.0836 -72.3305 13.3556L-71.9938 3.71339L-71.6998 0.955403ZM-80.5789 7.07746L-80.5704 6.8335C-80.5368 5.87315 -80.3941 5.00578 -80.1422 4.23141C-79.8823 3.44955 -79.5295 2.78338 -79.0838 2.23288C-78.6303 1.68266 -78.0924 1.26721 -77.47 0.986529C-76.8473 0.698104 -76.1526 0.567279 -75.3859 0.594053C-74.5959 0.62164 -73.9115 0.785116 -73.3327 1.08448C-72.7458 1.37637 -72.2563 1.79281 -71.8642 2.33379C-71.4641 2.86729 -71.1569 3.50611 -70.9425 4.25025C-70.7281 4.99439 -70.5906 5.83277 -70.5302 6.76539L-70.5675 7.83417C-70.6849 8.75282 -70.8803 9.57569 -71.1538 10.3028C-71.4196 11.0302 -71.7707 11.646 -72.207 12.1503C-72.6356 12.6549 -73.1529 13.0361 -73.759 13.2941C-74.3648 13.5444 -75.0666 13.6556 -75.8643 13.6277C-76.6156 13.6015 -77.2916 13.4189 -77.8923 13.08C-78.4853 12.7414 -78.9887 12.2779 -79.4024 11.6897C-79.8161 11.1014 -80.1255 10.416 -80.3308 9.63339C-80.5281 8.84332 -80.6108 7.99135 -80.5789 7.07746ZM-78.4212 6.90855L-78.4297 7.15251C-78.4516 7.77984 -78.4102 8.37061 -78.3055 8.92481C-78.1931 9.47929 -78.0125 9.97024 -77.7637 10.3976C-77.5073 10.8253 -77.1741 11.1665 -76.7643 11.4212C-76.3542 11.6682 -75.8587 11.8018 -75.2779 11.8221C-74.5653 11.8469 -73.9715 11.7165 -73.4962 11.4307C-73.021 11.1448 -72.6392 10.7588 -72.3508 10.2726C-72.0547 9.7867 -71.819 9.25601 -71.6439 8.68056L-71.5461 5.88082C-71.6164 5.45188 -71.7337 5.03681 -71.8981 4.63561C-72.0544 4.22693 -72.2666 3.86283 -72.5345 3.5433C-72.7945 3.2163 -73.1226 2.95283 -73.5189 2.75289C-73.9151 2.55295 -74.3843 2.44352 -74.9264 2.42459C-75.515 2.40403 -76.0266 2.51023 -76.4613 2.74319C-76.8879 2.96868 -77.2441 3.28967 -77.5301 3.70616C-77.808 4.11518 -78.0225 4.59621 -78.1737 5.14924C-78.3168 5.69479 -78.3993 6.28123 -78.4212 6.90855ZM-64.4282 3.89617L-64.7735 13.7824L-66.9226 13.7073L-66.4837 1.13755L-64.4507 1.20855L-64.4282 3.89617ZM-65.0485 7.00334L-65.9418 6.93725C-65.904 6.07785 -65.7485 5.28847 -65.4753 4.56912C-65.2018 3.84202 -64.8309 3.21524 -64.3628 2.68879C-63.8947 2.16235 -63.3457 1.76279 -62.7158 1.49012C-62.0779 1.20999 -61.3795 1.08317 -60.6205 1.10967C-60.0009 1.13131 -59.4463 1.23597 -58.9566 1.42367C-58.4666 1.60362 -58.0537 1.88168 -57.7179 2.25785C-57.3743 2.6343 -57.1198 3.1162 -56.9542 3.70355C-56.7883 4.28315 -56.7199 4.9873 -56.7488 5.81599L-57.0364 14.0526L-59.1972 13.9771L-58.9088 5.7173C-58.8858 5.05899 -58.9642 4.52897 -59.144 4.12722C-59.3236 3.71773 -59.5961 3.41743 -59.9617 3.22632C-60.3269 3.02746 -60.7806 2.91857 -61.3228 2.89964C-61.8571 2.88098 -62.349 2.97624 -62.7983 3.18542C-63.2398 3.39487 -63.6263 3.69155 -63.9576 4.07544C-64.2812 4.45961 -64.541 4.90416 -64.7369 5.40909C-64.9249 5.90655 -65.0288 6.43797 -65.0485 7.00334ZM-43.1159 6.4549L-43.1776 8.22071L-48.8468 8.02273L-48.7851 6.25693L-43.1159 6.4549ZM-25.9042 10.8594C-25.8904 10.4644 -25.9402 10.1137 -26.0535 9.80735C-26.1589 9.49351 -26.3583 9.20739 -26.6516 8.94901C-26.9373 8.6909 -27.3395 8.44035 -27.8583 8.19736C-28.3694 7.95464 -29.0197 7.70318 -29.8093 7.44298C-30.6371 7.16594 -31.3826 6.86463 -32.0458 6.53906C-32.7088 6.20574 -33.2735 5.8332 -33.7399 5.42145C-34.2063 5.0097 -34.5583 4.54378 -34.7961 4.0237C-35.0338 3.50362 -35.1412 2.91443 -35.1182 2.25612C-35.0952 1.59782 -34.9384 0.994586 -34.6479 0.446428C-34.3573 -0.10173 -33.9532 -0.572256 -33.4354 -0.96515C-32.9097 -1.36552 -32.2904 -1.66957 -31.5775 -1.8773C-30.8646 -2.08503 -30.0744 -2.17375 -29.207 -2.14346C-27.9369 -2.09911 -26.8689 -1.81755 -26.003 -1.2988C-25.1291 -0.787523 -24.4735 -0.132659 -24.0361 0.665791C-23.5985 1.4565 -23.3951 2.2933 -23.4259 3.1762L-25.6564 3.09831C-25.6342 2.46324 -25.7502 1.89701 -26.0042 1.39963C-26.2579 0.894495 -26.6549 0.492922 -27.195 0.194908C-27.7349 -0.110851 -28.4269 -0.27847 -29.2711 -0.30795C-30.0688 -0.335806 -30.7313 -0.238751 -31.2586 -0.0167833C-31.7859 0.205184 -32.1845 0.516942 -32.4544 0.91849C-32.7166 1.32031 -32.8568 1.78454 -32.8752 2.31119C-32.8877 2.66745 -32.8255 2.9953 -32.6886 3.29474C-32.5437 3.5867 -32.3168 3.86214 -32.0079 4.12107C-31.6913 4.38026 -31.2888 4.62306 -30.8005 4.84948C-30.3043 5.07617 -29.7112 5.29849 -29.0209 5.51645C-28.07 5.82106 -27.2519 6.15204 -26.5665 6.50941C-25.8811 6.86677 -25.3211 7.26241 -24.8865 7.69631C-24.4439 8.12274 -24.1233 8.60307 -23.9249 9.13728C-23.7184 9.66403 -23.6266 10.2566 -23.6496 10.9149C-23.6737 11.6041 -23.8349 12.2227 -24.1332 12.7706C-24.4314 13.3185 -24.8469 13.7809 -25.3796 14.1577C-25.9123 14.5346 -26.5465 14.8188 -27.282 15.0102C-28.0096 15.1941 -28.8187 15.2706 -29.7094 15.2395C-30.4916 15.2122 -31.2584 15.0768 -32.0098 14.8335C-32.7535 14.5904 -33.4275 14.2412 -34.032 13.7858C-34.6287 13.3307 -35.1018 12.7792 -35.4514 12.1311C-35.7929 11.4756 -35.949 10.7257 -35.9195 9.88156L-33.689 9.95945C-33.7093 10.5403 -33.6144 11.0438 -33.4044 11.4698C-33.1942 11.8881 -32.9001 12.2396 -32.5224 12.5242C-32.1369 12.809 -31.6986 13.026 -31.2075 13.1749C-30.7084 13.3164 -30.1878 13.3966 -29.6457 13.4156C-28.8634 13.4429 -28.1975 13.3576 -27.6478 13.1597C-27.0981 12.9617 -26.6768 12.6663 -26.3839 12.2733C-26.0833 11.8806 -25.9234 11.4093 -25.9042 10.8594ZM-16.0592 15.7161C-16.9343 15.6856 -17.723 15.5107 -18.4253 15.1915C-19.1195 14.8649 -19.7127 14.4215 -20.205 13.8616C-20.6894 13.3018 -21.0542 12.6455 -21.2993 11.8925C-21.5444 11.1396 -21.6516 10.3216 -21.6207 9.43874L-21.6037 8.95082C-21.568 7.92851 -21.3852 7.02377 -21.0553 6.23661C-20.7251 5.4417 -20.2908 4.77449 -19.7525 4.23499C-19.2141 3.69549 -18.6108 3.29395 -17.9424 3.03038C-17.2741 2.76681 -16.5876 2.64734 -15.8828 2.67195C-14.9844 2.70332 -14.2153 2.88526 -13.5756 3.21777C-12.9281 3.55055 -12.405 4.00305 -12.0063 4.57528C-11.6072 5.13977 -11.3202 5.80114 -11.145 6.55942C-10.9696 7.30995 -10.8974 8.12667 -10.9282 9.00957L-10.9619 9.9738L-20.3485 9.64601L-20.2873 7.89182L-13.0498 8.14455L-13.0441 7.98191C-13.0556 7.42321 -13.1528 6.87702 -13.3358 6.34334C-13.511 5.80993 -13.8057 5.36541 -14.2197 5.00976C-14.6338 4.65412 -15.2087 4.46345 -15.9445 4.43776C-16.4324 4.42072 -16.8852 4.50959 -17.303 4.70436C-17.7205 4.89139 -18.0835 5.18113 -18.3918 5.57358C-18.7002 5.96603 -18.9458 6.44985 -19.1288 7.02503C-19.3117 7.60021 -19.4164 8.26729 -19.4429 9.02628L-19.4599 9.5142C-19.4808 10.1105 -19.4191 10.6749 -19.2748 11.2072C-19.1225 11.7321 -18.8945 12.1975 -18.5908 12.6036C-18.2793 13.0099 -17.899 13.3334 -17.4499 13.5739C-16.9931 13.8148 -16.4703 13.9455 -15.8817 13.966C-15.1228 13.9925 -14.4745 13.8601 -13.9371 13.5687C-13.3996 13.2773 -12.9243 12.879 -12.5112 12.3739L-11.2462 13.4533C-11.5316 13.8543 -11.8899 14.2333 -12.3211 14.5905C-12.7523 14.9476 -13.2779 15.2317 -13.8978 15.4427C-14.51 15.6539 -15.2305 15.7451 -16.0592 15.7161ZM-1.16412 13.8519L-0.938156 7.38111C-0.920847 6.88544 -1.00652 6.45209 -1.19517 6.08105C-1.37581 5.70254 -1.6601 5.40571 -2.04806 5.19055C-2.43601 4.97539 -2.92041 4.85767 -3.50127 4.83739C-4.04341 4.81846 -4.52295 4.89476 -4.93992 5.0663C-5.34914 5.23811 -5.67519 5.47098 -5.91808 5.76492C-6.15323 6.05912 -6.27689 6.38048 -6.28906 6.72899L-8.43823 6.65394C-8.42255 6.20475 -8.29083 5.76348 -8.04307 5.33014C-7.79531 4.8968 -7.44835 4.50958 -7.0022 4.16846C-6.54804 3.81987 -6.01139 3.55171 -5.39225 3.36396C-4.7651 3.16875 -4.07202 3.08439 -3.31304 3.11089C-2.39915 3.14281 -1.5991 3.32583 -0.912893 3.65996C-0.218937 3.99436 0.31458 4.48213 0.687657 5.12325C1.06875 5.75689 1.24293 6.54227 1.21021 7.47939L1.00574 13.3344C0.99114 13.7527 1.01044 14.1992 1.06365 14.6741C1.1246 15.1492 1.2227 15.5597 1.35795 15.9056L1.35146 16.0915L-0.890656 16.0132C-0.990429 15.7616 -1.06413 15.4295 -1.11175 15.0168C-1.1591 14.5964 -1.17656 14.2081 -1.16412 13.8519ZM-0.601296 8.39316L-0.6308 9.90421L-2.80321 9.82834C-3.41505 9.80698 -3.96281 9.83825 -4.4465 9.92217C-4.92992 9.99833 -5.33766 10.1275 -5.6697 10.3098C-6.00174 10.4921 -6.25809 10.7274 -6.43875 11.0157C-6.61915 11.2963 -6.7161 11.6303 -6.72963 12.0175C-6.74342 12.4125 -6.66693 12.7757 -6.50016 13.1072C-6.33339 13.4387 -6.07525 13.7075 -5.72576 13.9136C-5.36824 14.1122 -4.92616 14.2206 -4.39952 14.239C-3.74121 14.262 -3.15549 14.1429 -2.64234 13.8817C-2.12919 13.6204 -1.71844 13.2936 -1.41007 12.9011C-1.09396 12.509 -0.917664 12.1235 -0.881178 11.7448L0.000472734 12.8108C-0.0650997 13.1342 -0.224827 13.4892 -0.478708 13.8758C-0.732589 14.2624 -1.06725 14.6307 -1.48269 14.9806C-1.89011 15.3231 -2.37296 15.6048 -2.93122 15.8256C-3.48147 16.0391 -4.09736 16.1339 -4.7789 16.1101C-5.63083 16.0803 -6.37238 15.8877 -7.00357 15.5322C-7.62701 15.177 -8.10713 14.7144 -8.44391 14.1443C-8.77269 13.5668 -8.9249 12.9295 -8.90056 12.2325C-8.87703 11.5587 -8.72468 10.9708 -8.44351 10.4688C-8.16207 9.95913 -7.76756 9.54255 -7.26 9.21909C-6.75216 8.88788 -6.14662 8.64538 -5.44337 8.49159C-4.74012 8.33781 -3.95866 8.27592 -3.09899 8.30594L-0.601296 8.39316ZM6.80975 5.67434L6.43977 16.2692L4.29059 16.1941L4.72954 3.62437L6.82063 3.6974L6.80975 5.67434ZM10.8078 3.76684L10.7264 5.76459C10.5496 5.71964 10.38 5.69046 10.2176 5.67703C10.0633 5.65614 9.88542 5.64217 9.68406 5.63514C9.18839 5.61783 8.74811 5.68 8.3632 5.82164C7.9783 5.96328 7.64932 6.16891 7.37626 6.43853C7.1032 6.70815 6.88246 7.03387 6.71405 7.4157C6.55364 7.79005 6.44223 8.20489 6.3798 8.66021L5.76354 8.98763C5.79004 8.22864 5.8885 7.51869 6.05891 6.85778C6.23707 6.19714 6.49384 5.61678 6.82922 5.11672C7.16488 4.60891 7.58167 4.22024 8.0796 3.95072C8.58554 3.67373 9.17928 3.54713 9.86082 3.57093C10.0157 3.57634 10.1932 3.60193 10.3932 3.64768C10.5935 3.68569 10.7317 3.72541 10.8078 3.76684ZM17.2044 15.1098C17.7155 15.1276 18.1916 15.0396 18.6326 14.8456C19.0736 14.6516 19.4399 14.3775 19.7314 14.0232C20.0232 13.6612 20.1967 13.2447 20.2519 12.7736L22.2965 12.845C22.2319 13.5872 21.9559 14.2715 21.4688 14.8981C20.9897 15.5172 20.3715 16.0113 19.6142 16.3803C18.8572 16.7416 18.0333 16.9067 17.1427 16.8756C16.1978 16.8426 15.3788 16.6473 14.6857 16.2896C14.0003 15.9323 13.4354 15.455 12.991 14.858C12.5543 14.2611 12.2329 13.583 12.0268 12.8237C11.8287 12.0569 11.7444 11.2514 11.7739 10.4072L11.7909 9.91925C11.8204 9.07507 11.9606 8.28128 12.2114 7.53788C12.4703 6.78701 12.8383 6.12912 13.3155 5.56422C13.8005 4.99959 14.3973 4.56293 15.106 4.25425C15.8224 3.94583 16.653 3.80812 17.5979 3.84112C18.5814 3.87547 19.4341 4.10685 20.1558 4.53527C20.8777 4.95595 21.4358 5.51823 21.8299 6.22212C22.2321 6.91854 22.4374 7.70113 22.4458 8.56989L20.4012 8.49849C20.3806 7.97824 20.2498 7.50454 20.0088 7.0774C19.7756 6.65053 19.4465 6.3056 19.0214 6.04263C18.6044 5.77217 18.1093 5.62694 17.5362 5.60693C16.8779 5.58394 16.3195 5.69626 15.8611 5.9439C15.4108 6.18406 15.0462 6.52027 14.7675 6.95253C14.4968 7.37731 14.294 7.85487 14.1591 8.3852C14.0323 8.90806 13.9593 9.44443 13.9401 9.99431L13.9231 10.4822C13.9039 11.0321 13.9392 11.5761 14.0289 12.1143C14.1187 12.6525 14.2838 13.1429 14.5242 13.5855C14.7724 14.0284 15.1126 14.3892 15.5449 14.668C15.9851 14.9392 16.5383 15.0865 17.2044 15.1098ZM27.3465 -0.86645L26.7233 16.9775L24.5742 16.9025L25.1973 -0.941501L27.3465 -0.86645ZM26.4483 10.1985L25.555 10.1324C25.5927 9.27299 25.7483 8.48361 26.0215 7.76425C26.295 7.03715 26.6659 6.41038 27.134 5.88393C27.6021 5.35748 28.1511 4.95793 28.781 4.68526C29.4189 4.40512 30.1173 4.27831 30.8763 4.30481C31.4959 4.32645 32.0505 4.43111 32.5402 4.61881C33.0302 4.79876 33.4431 5.07682 33.7789 5.45299C34.1225 5.82944 34.377 6.31133 34.5426 6.89868C34.7085 7.47829 34.7769 8.18244 34.748 9.01113L34.4604 17.2477L32.2996 17.1722L32.588 8.91244C32.611 8.25413 32.5326 7.7241 32.3528 7.32236C32.1732 6.91287 31.9007 6.61257 31.5351 6.42146C31.1699 6.2226 30.7162 6.11371 30.174 6.09478C29.6397 6.07611 29.1478 6.17137 28.6985 6.38056C28.257 6.59001 27.8705 6.88668 27.5392 7.27058C27.2156 7.65475 26.9558 8.0993 26.7598 8.60423C26.5719 9.10169 26.468 9.6331 26.4483 10.1985Z" fill="white"/>
<rect x="-45.4154" y="-34.5718" width="84.6452" height="82" transform="rotate(2 -45.4154 -34.5718)" fill="url(#paint0_linear_0_1)"/>
<rect width="2.64056" height="19.8042" rx="0.66129" transform="matrix(0.731349 -0.682004 0.681993 0.731359 0.949219 2.00049)" fill="white"/>
<rect width="2.64056" height="19.8042" rx="0.66129" transform="matrix(-0.681993 -0.731359 -0.731349 0.682004 16.8105 2.5542)" fill="white"/>
</g>
<defs>
<filter id="filter0_f_0_1" x="-55.8828" y="-100.128" width="363.88" height="113.859" filterUnits="userSpaceOnUse" color-interpolation-filters="sRGB">
<feFlood flood-opacity="0" result="BackgroundImageFix"/>
<feBlend mode="normal" in="SourceGraphic" in2="BackgroundImageFix" result="shape"/>
<feGaussianBlur stdDeviation="5" result="effect1_foregroundBlur_0_1"/>
</filter>
<filter id="filter1_f_0_1" x="-306.702" y="-45.5264" width="363.88" height="113.859" filterUnits="userSpaceOnUse" color-interpolation-filters="sRGB">
<feFlood flood-opacity="0" result="BackgroundImageFix"/>
<feBlend mode="normal" in="SourceGraphic" in2="BackgroundImageFix" result="shape"/>
<feGaussianBlur stdDeviation="5" result="effect1_foregroundBlur_0_1"/>
</filter>
<linearGradient id="paint0_linear_0_1" x1="39.2298" y1="6.42822" x2="-45.4154" y2="6.42822" gradientUnits="userSpaceOnUse">
<stop offset="0.536458" stop-color="#181818"/>
<stop offset="1" stop-color="#181818" stop-opacity="0.8"/>
</linearGradient>
<clipPath id="clip0_0_1">
<rect width="1440" height="7214" fill="white" transform="translate(-674 -350)"/>
</clipPath>
<clipPath id="clip1_0_1">
<rect width="1440" height="7214" fill="white" transform="translate(-733 -747)"/>
</clipPath>
</defs>
</svg>
